<?xml version="1.0" encoding="utf-8"?>
<!-- Generator: Adobe Illustrator 26.2.1, SVG Export Plug-In . SVG Version: 6.00 Build 0)  -->
<svg version="1.1" id="Layer_1" xmlns="http://www.w3.org/2000/svg" xmlns:xlink="http://www.w3.org/1999/xlink" x="0px" y="0px"
	 viewBox="0 0 424 144" style="enable-background:new 0 0 424 144;" xml:space="preserve">
<path d="M9.1,85.6l9.5,9.5l9.5-9.5l-9.5-9.5L9.1,85.6z M18.6,100.7c-0.6,0-1.2-0.2-1.7-0.7L4.2,87.2c-0.4-0.4-0.7-1-0.7-1.6
	s0.2-1.2,0.7-1.6L17,71.3c0.9-0.9,2.4-0.9,3.3,0L33,84c0.4,0.4,0.7,1,0.7,1.6s-0.2,1.2-0.7,1.6L20.2,100
	C19.8,100.5,19.2,100.7,18.6,100.7"/>
<path d="M86.2,39.2C80,39.3,75,44.3,75.1,50.5c0.1,6.2,5.1,11.2,11.3,11.1c6.2-0.1,11.2-5.1,11.1-11.3
	C97.5,44.2,92.4,39.2,86.2,39.2 M86.5,66.3c-8.7,0.1-15.9-7-16-15.7s7-15.9,15.7-16c8.7-0.1,15.9,7,16,15.7
	C102.2,59.1,95.2,66.2,86.5,66.3"/>
<path d="M53.6,128.3c-8.7,0.1-15.9-7-16-15.7c0-1.3,1-2.3,2.3-2.3s2.3,1,2.3,2.3c0.1,6.2,5.1,11.2,11.3,11.1
	c6.2-0.1,11.2-5.1,11.1-11.3c0-1.3,1-2.3,2.3-2.3s2.3,1,2.3,2.3C69.4,121,62.3,128.2,53.6,128.3"/>
<path d="M49.1,96.8h8.5l0.3-32h-8.5L49.1,96.8z M59.9,101.4L59.9,101.4H46.8c-0.6,0-1.2-0.2-1.6-0.7c-0.4-0.4-0.7-1-0.7-1.6
	l0.3-36.6c0-1.3,1-2.3,2.3-2.3h13.2c0.6,0,1.2,0.2,1.6,0.7c0.4,0.4,0.7,1,0.7,1.7l-0.3,36.6C62.2,100.4,61.2,101.4,59.9,101.4"/>
<path d="M12.1,42.9v16.3l14.1-8.1L12.1,42.9z M9.8,65.6c-0.4,0-0.8-0.1-1.2-0.3c-0.7-0.4-1.2-1.2-1.2-2V39c0-0.8,0.4-1.6,1.2-2
	c0.7-0.4,1.6-0.4,2.3,0L32,49.2c0.7,0.4,1.2,1.2,1.2,2s-0.4,1.6-1.2,2L10.9,65.3C10.5,65.5,10.1,65.6,9.8,65.6"/>
<path d="M79.3,96.8l18.2-0.1l-9-19.6L79.3,96.8z M101.1,101.4L101.1,101.4l-25.5,0.1c-0.8,0-1.5-0.4-2-1.1c-0.4-0.7-0.5-1.5-0.1-2.2
	l12.9-27.5c0.4-0.8,1.2-1.3,2.1-1.3c0.9,0,1.7,0.5,2.1,1.4l12.5,27.4c0.3,0.7,0.3,1.6-0.2,2.2C102.6,101,101.8,101.4,101.1,101.4"/>
<path d="M59.4,45.5c-0.4,0-0.8-0.1-1.2-0.3c-3-1.8-3.7-4.3-4.2-6.1c-0.5-1.7-0.8-2.5-2.1-3.3c-1.3-0.8-2.2-0.6-3.9-0.1
	c-1.8,0.5-4.4,1.1-7.4-0.6c-3-1.7-3.7-4.2-4.2-6.1c-0.5-1.7-0.7-2.5-2-3.3s-2.2-0.6-3.9-0.1c-1.6,0.4-4.1,1.1-7.1-0.7
	c-3-1.7-3.7-4.2-4.2-6.1c-0.5-1.7-0.7-2.5-2-3.3c-1.1-0.6-1.5-2.1-0.9-3.2s2.1-1.5,3.2-0.9c3,1.7,3.7,4.2,4.2,6.1
	c0.5,1.7,0.7,2.5,2,3.3s2.2,0.6,3.9,0.1c1.8-0.5,4.3-1.1,7.3,0.6s3.7,4.2,4.2,6.1c0.5,1.7,0.7,2.5,2,3.3s2.2,0.6,3.9,0.2
	c1.8-0.5,4.4-1.1,7.4,0.6c3,1.8,3.7,4.2,4.2,6.1c0.5,1.7,0.8,2.5,2.1,3.3c1.1,0.6,1.5,2.1,0.8,3.2C60.9,45.1,60.2,45.5,59.4,45.5"/>
<path d="M421.7,140.8l-372,3.2c-1.3,0-2.3-1-2.3-2.3s1-2.3,2.3-2.3l369.7-3.2L418.2,4.7L48.5,7.9c-1.3,0-2.3-1-2.3-2.3
	s1-2.3,2.3-2.3l372-3.2c1.3,0,2.3,1,2.3,2.3l1.2,136.1C424,139.7,423,140.8,421.7,140.8"/>
<g>
	<path d="M147.4,65.8l7.8-22.2l6.2-0.1l-10.5,28.2l-7,0.1l-11-28l6.2-0.1L147.4,65.8z"/>
	<path d="M183.4,45c1.8,1.2,3.1,2.9,3.9,5l-0.1-6.5l5.8-0.1l0.2,28.1l-5.8,0.1l0-6.6c-0.7,2.1-2,3.8-3.8,5c-1.8,1.3-4,1.9-6.5,1.9
		c-2.4,0-4.6-0.5-6.6-1.7c-1.9-1.1-3.4-2.8-4.6-5c-1.1-2.2-1.7-4.7-1.7-7.7c0-2.9,0.5-5.5,1.6-7.7s2.6-3.9,4.5-5
		c1.9-1.2,4.1-1.8,6.5-1.8C179.4,43.1,181.6,43.7,183.4,45z M172.5,50.8c-1.5,1.7-2.3,3.9-2.3,6.8s0.8,5.2,2.4,6.8
		c1.6,1.6,3.6,2.4,6.2,2.4c1.6,0,3.1-0.4,4.4-1.2c1.3-0.8,2.3-1.9,3-3.3c0.7-1.4,1.1-3,1.1-4.9c0-1.8-0.4-3.5-1.2-4.9
		s-1.8-2.5-3.1-3.2c-1.3-0.8-2.8-1.1-4.4-1.1C176.1,48.3,174,49.1,172.5,50.8z"/>
	<path d="M205.7,33.6l0.3,37.7l-5.8,0.1l-0.3-37.7L205.7,33.6z"/>
	<path d="M238.9,58.2l-21.6,0.2c0.1,2.9,0.9,5,2.5,6.4c1.5,1.4,3.4,2.1,5.6,2c1.9,0,3.6-0.5,4.9-1.5s2.1-2.3,2.4-3.9l6.2-0.1
		c-0.4,2-1.1,3.7-2.3,5.3c-1.2,1.5-2.7,2.8-4.6,3.6c-1.9,0.9-4,1.3-6.4,1.4c-2.7,0-5.1-0.5-7.2-1.7c-2.1-1.1-3.8-2.8-5-5
		c-1.2-2.2-1.8-4.7-1.9-7.7c0-2.9,0.5-5.5,1.7-7.7s2.8-3.9,4.9-5c2.1-1.2,4.5-1.8,7.2-1.8c2.8,0,5.2,0.5,7.2,1.6
		c2.1,1.1,3.7,2.7,4.8,4.6c1.1,2,1.7,4.2,1.7,6.6C239.1,56.6,239,57.4,238.9,58.2z M232.2,51c-0.7-1.2-1.7-2.1-2.9-2.7
		c-1.2-0.6-2.5-0.9-4-0.9c-2.3,0-4.2,0.7-5.7,2.1c-1.5,1.4-2.3,3.5-2.4,6.2l16-0.1C233.2,53.7,232.9,52.2,232.2,51z"/>
	<path d="M270.5,42.7l0.2,28.1l-5.9,0.1l-0.1-6.1c-0.7,2.1-1.9,3.7-3.7,4.9c-1.8,1.2-3.8,1.7-6.2,1.8c-3.3,0-5.9-1-7.9-3.1
		s-3-5.1-3-9l-0.1-16.3l5.8-0.1l0.1,15.7c0,2.6,0.7,4.5,2,5.9s3.1,2,5.3,2c2.3,0,4.2-0.8,5.5-2.3c1.4-1.5,2.1-3.7,2-6.5l-0.1-14.9
		L270.5,42.7z"/>
	<path d="M287.3,43.7c1.8-1.1,3.8-1.6,6.1-1.7l0.1,6.3h-1.7c-2.5,0-4.6,0.7-6.1,1.9c-1.5,1.3-2.3,3.3-2.3,6.2l0.1,14.2l-5.8,0.1
		l-0.3-28.1l5.8-0.1V48C284.2,46.2,285.6,44.8,287.3,43.7z"/>
</g>
<g>
	<path d="M157.7,94.2c2.4,1.9,3.9,4.5,4.5,7.8l-6.2,0.1c-0.4-1.8-1.2-3.1-2.5-4.1s-3-1.5-4.9-1.5c-2.2,0-4.1,0.8-5.6,2.4
		s-2.2,3.9-2.2,7s0.8,5.4,2.3,7s3.4,2.4,5.6,2.3c2,0,3.6-0.5,4.9-1.6s2.1-2.4,2.4-4.2l6.2-0.1c-0.5,3.3-2,5.9-4.4,7.9s-5.4,3-9,3
		c-2.7,0-5.1-0.5-7.2-1.7s-3.8-2.8-5-5s-1.8-4.7-1.9-7.7c0-2.9,0.5-5.5,1.7-7.7s2.8-3.9,4.9-5c2.1-1.2,4.5-1.8,7.2-1.8
		C152.3,91.4,155.3,92.3,157.7,94.2z"/>
	<path d="M187.7,92.8c2.2,1.1,3.9,2.8,5.1,5s1.9,4.7,1.9,7.6c0,3-0.6,5.5-1.8,7.7c-1.2,2.2-2.9,3.9-5.1,5c-2.2,1.2-4.6,1.8-7.3,1.8
		s-5.2-0.5-7.3-1.7c-2.2-1.1-3.9-2.8-5.1-5c-1.3-2.2-1.9-4.7-1.9-7.7c0-2.9,0.6-5.5,1.8-7.7s2.9-3.9,5.1-5c2.1-1.2,4.6-1.8,7.3-1.8
		C183,91.1,185.5,91.6,187.7,92.8z M176.2,97.2c-1.3,0.7-2.3,1.7-3,3.2c-0.8,1.4-1.1,3.1-1.1,5.2s0.4,3.8,1.2,5.2
		c0.8,1.4,1.8,2.4,3.1,3.1s2.6,1,4.1,1s2.9-0.4,4.1-1.1s2.3-1.7,3-3.1c0.8-1.4,1.1-3.1,1.1-5.2c0-2-0.4-3.8-1.2-5.2
		c-0.8-1.4-1.8-2.4-3.1-3.1s-2.6-1-4.1-1S177.5,96.5,176.2,97.2z"/>
	<path d="M205.9,81.6l0.3,37.7l-5.8,0.1l-0.3-37.7L205.9,81.6z"/>
	<path d="M218.8,81.5l0.3,37.7l-5.8,0.1L213,81.6L218.8,81.5z"/>
	<path d="M251.9,106l-21.6,0.2c0.1,2.9,0.9,5,2.5,6.4c1.5,1.4,3.4,2.1,5.6,2c1.9,0,3.6-0.5,4.9-1.5s2.1-2.3,2.4-3.9l6.2-0.1
		c-0.4,2-1.1,3.7-2.3,5.3c-1.2,1.5-2.7,2.8-4.6,3.6s-4,1.3-6.4,1.4c-2.7,0-5.1-0.5-7.2-1.7c-2.1-1.1-3.8-2.8-5-5s-1.8-4.7-1.9-7.7
		c0-2.9,0.5-5.5,1.7-7.7s2.8-3.9,4.9-5c2.1-1.2,4.5-1.8,7.2-1.8c2.8,0,5.2,0.5,7.2,1.6c2.1,1.1,3.7,2.7,4.8,4.6
		c1.1,2,1.7,4.2,1.7,6.6C252.1,104.5,252.1,105.3,251.9,106z M245.3,98.8c-0.7-1.2-1.7-2.1-2.9-2.7c-1.2-0.6-2.5-0.9-4-0.9
		c-2.3,0-4.2,0.7-5.7,2.1s-2.3,3.5-2.4,6.2l16-0.1C246.3,101.6,246,100.1,245.3,98.8z"/>
	<path d="M279.2,93.1c2.4,1.9,3.9,4.5,4.5,7.8l-6.2,0.1c-0.4-1.8-1.2-3.1-2.5-4.1s-3-1.5-4.9-1.5c-2.2,0-4.1,0.8-5.6,2.4
		s-2.2,3.9-2.2,7s0.8,5.4,2.3,7s3.4,2.4,5.6,2.3c2,0,3.6-0.5,4.9-1.6c1.3-1,2.1-2.4,2.4-4.2l6.2-0.1c-0.6,3.3-2,5.9-4.4,7.9
		s-5.4,3-9,3c-2.7,0-5.1-0.5-7.2-1.7s-3.8-2.8-5-5s-1.8-4.7-1.9-7.7c0-2.9,0.5-5.5,1.7-7.7s2.8-3.9,4.9-5s4.5-1.8,7.2-1.8
		C273.7,90.3,276.8,91.2,279.2,93.1z"/>
	<path d="M304.1,113.4v5h-3.6c-3,0-5.3-0.7-6.8-2.1c-1.6-1.4-2.4-3.8-2.4-7.2l-0.1-13.8h-4v-4.9h4l-0.1-7l5.9-0.1l0.1,7l6.8-0.1v4.9
		l-6.8,0.1l0.1,13.9c0,1.6,0.3,2.7,0.9,3.3c0.6,0.6,1.6,0.9,3.1,0.9L304.1,113.4z"/>
	<path d="M309.5,79.7c0.7-0.7,1.6-1,2.7-1s2,0.3,2.7,0.9s1.1,1.5,1.1,2.4c0,1-0.3,1.8-1,2.4s-1.6,0.9-2.7,0.9s-2-0.3-2.7-0.9
		s-1-1.4-1-2.4S308.8,80.4,309.5,79.7z M315.2,90.3l0.2,28.1l-5.8,0.1l-0.2-28.2H315.2z"/>
	<path d="M333.9,112.2l7.8-22.2l6.2-0.1l-10.5,28.2l-7,0.1l-11-28l6.2-0.1L333.9,112.2z"/>
	<path d="M377.7,104.9l-21.6,0.2c0.1,2.9,0.9,5,2.5,6.4c1.5,1.4,3.4,2.1,5.6,2c1.9,0,3.6-0.5,4.9-1.5s2.1-2.3,2.4-3.9l6.2-0.1
		c-0.4,2-1.1,3.7-2.3,5.3c-1.2,1.5-2.7,2.8-4.6,3.6c-1.9,0.9-4,1.3-6.4,1.4c-2.7,0-5.1-0.5-7.2-1.7c-2.1-1.1-3.8-2.8-5-5
		s-1.8-4.7-1.9-7.7c0-2.9,0.5-5.5,1.7-7.7s2.8-3.9,4.9-5c2.1-1.2,4.5-1.8,7.2-1.8c2.8,0,5.2,0.5,7.2,1.6c2.1,1.1,3.7,2.7,4.8,4.6
		c1.1,2,1.7,4.2,1.7,6.6C377.9,103.4,377.9,104.2,377.7,104.9z M371.1,97.7c-0.7-1.2-1.7-2.1-2.9-2.7c-1.2-0.6-2.5-0.9-4-0.9
		c-2.3,0-4.2,0.7-5.7,2.1s-2.3,3.5-2.4,6.2l16-0.1C372.1,100.5,371.8,99,371.1,97.7z"/>
</g>
</svg>
