<?xml version="1.0" encoding="utf-8"?>
<!-- Generator: Adobe Illustrator 16.0.0, SVG Export Plug-In . SVG Version: 6.00 Build 0)  -->
<!DOCTYPE svg PUBLIC "-//W3C//DTD SVG 1.1//EN" "http://www.w3.org/Graphics/SVG/1.1/DTD/svg11.dtd">
<svg version="1.1" id="Layer_1" xmlns="http://www.w3.org/2000/svg" xmlns:xlink="http://www.w3.org/1999/xlink" x="0px" y="0px"
	 width="789.225px" height="298.104px" viewBox="2.839 158.247 789.225 298.104"
	 enable-background="new 2.839 158.247 789.225 298.104" xml:space="preserve">
<title>Realized through Value Collective Logo</title>
<path fill="#575553" d="M126.425,362.684l15.208,15.256l15.255-15.208l-15.191-15.255L126.425,362.684z M141.649,386.907
	c-0.999,0.014-1.96-0.381-2.663-1.091l-20.454-20.518c-0.688-0.703-1.073-1.647-1.075-2.631c0-0.987,0.393-1.934,1.091-2.631
	l20.534-20.453c1.451-1.442,3.794-1.442,5.246,0l20.453,20.533c1.442,1.451,1.442,3.794,0,5.245l-20.533,20.47
	C143.557,386.518,142.623,386.904,141.649,386.907"/>
<path fill="#575553" d="M250.108,288.266c-9.94,0.089-17.926,8.219-17.837,18.159c0.089,9.94,8.219,17.927,18.159,17.837
	c9.939-0.089,17.925-8.218,17.837-18.157C268.161,296.171,260.042,288.194,250.108,288.266 M250.493,331.691
	c-14.042,0.123-25.525-11.16-25.648-25.202c-0.124-14.042,11.16-25.525,25.202-25.649c14.035-0.123,25.515,11.149,25.648,25.184
	C275.819,320.069,264.538,331.559,250.493,331.691"/>
<path fill="#575553" d="M197.763,431.15c-14.044,0.106-25.525-11.174-25.667-25.218c0.135-2.051,1.907-3.604,3.958-3.47
	c1.863,0.123,3.347,1.606,3.47,3.47c0.084,9.94,8.21,17.931,18.151,17.847c9.94-0.085,17.931-8.211,17.846-18.151
	c0-2.056,1.665-3.723,3.72-3.724c2.056-0.001,3.723,1.665,3.723,3.72c0,0.002,0,0.003,0,0.004
	c0.107,14.044-11.173,25.525-25.218,25.667"/>
<path fill="#575553" d="M190.528,380.57h13.62l0.401-51.334h-13.651L190.528,380.57z M207.87,388.014h-21.079
	c-0.994,0.012-1.95-0.383-2.647-1.091c-0.69-0.708-1.076-1.658-1.075-2.646l0.401-58.745c0-2.038,1.652-3.69,3.689-3.69
	c0.011,0,0.021,0,0.032,0.001h21.111c0.987,0,1.933,0.393,2.631,1.091c0.701,0.701,1.088,1.655,1.075,2.646l-0.449,58.761
	c-0.026,2.027-1.663,3.664-3.69,3.69"/>
<path fill="#575553" d="M131.142,294.201v26.164l22.667-13.025L131.142,294.201z M127.436,330.504
	c-2.055,0.018-3.736-1.634-3.753-3.689c0-0.011,0-0.021,0-0.032v-39.046c-0.004-1.327,0.707-2.553,1.861-3.208
	c1.153-0.659,2.569-0.659,3.722,0l33.784,19.587c1.139,0.668,1.84,1.888,1.845,3.208c0.005,1.327-0.707,2.554-1.861,3.209
	l-33.768,19.49c-0.56,0.313-1.188,0.484-1.829,0.497"/>
<path fill="#575553" d="M239.023,380.65h29.164l-14.357-31.41L239.023,380.65z M273.994,387.981L273.994,387.981l-40.811,0.112
	c-2.046,0.012-3.715-1.638-3.726-3.685c-0.003-0.557,0.119-1.106,0.357-1.609l20.71-44.051c0.635-1.292,1.944-2.117,3.385-2.133
	c1.449,0.019,2.758,0.867,3.369,2.182l20.084,43.922c0.53,1.147,0.433,2.486-0.257,3.546c-0.676,1.058-1.84,1.703-3.096,1.716"/>
<path fill="#575553" d="M207.067,298.276c-0.67,0.014-1.331-0.158-1.909-0.497c-3.541-2.128-5.987-5.686-6.706-9.753
	c-0.754-2.711-1.203-4.075-3.305-5.294s-3.481-0.931-6.192-0.225c-2.952,0.754-6.994,1.797-11.807-1.027
	c-3.553-2.097-6-5.654-6.689-9.721c-0.738-2.695-1.171-4.042-3.208-5.246c-2.038-1.203-3.481-0.898-6.176-0.208
	c-7.125,2.701-15.089-0.885-17.791-8.01c-0.332-0.875-0.573-1.782-0.722-2.706c-0.738-2.695-1.171-4.043-3.208-5.23
	c-1.687-1.175-2.102-3.494-0.927-5.181c1.04-1.493,3.005-2.015,4.648-1.236c4.813,2.775,5.904,6.802,6.706,9.737
	c0.722,2.695,1.171,4.059,3.208,5.246s3.481,0.915,6.192,0.225c3.873-1.409,8.167-1.057,11.759,0.962
	c4.812,2.775,5.903,6.802,6.706,9.737c0.722,2.695,1.171,4.043,3.208,5.246c2.037,1.203,3.513,0.946,6.224,0.24
	c7.174-2.67,15.154,0.981,17.824,8.155c0.312,0.84,0.543,1.708,0.688,2.593c0.754,2.727,1.203,4.075,3.305,5.31
	c1.77,1.028,2.371,3.296,1.343,5.065c-0.004,0.006-0.007,0.013-0.011,0.02c-0.661,1.145-1.887,1.844-3.208,1.829"/>
<path fill="#575553" d="M788.326,451.139l-596.755,5.213c-2.051-0.135-3.604-1.906-3.47-3.958c0.123-1.862,1.606-3.347,3.47-3.469
	l593.113-5.182l-1.845-210.95l-593.258,5.182c-2.051-0.135-3.604-1.907-3.469-3.958c0.122-1.863,1.606-3.347,3.469-3.47
	l596.835-5.213c2.053-0.009,3.728,1.638,3.754,3.689l1.894,218.377c0.026,2.038-1.604,3.711-3.642,3.737
	c-0.011,0-0.021,0.001-0.032,0.001"/>
<polygon fill="#575553" points="323.756,299.367 333.734,299.271 346.808,335.861 359.24,299.046 369.298,298.966 352.519,344.155 
	341.241,344.252 "/>
<g>
	<path fill="#575553" d="M406.162,332.204c5.337-6.435,5.256-15.78-0.192-22.121c-5.196-5.29-13.698-5.366-18.988-0.169
		c-0.088,0.087-0.176,0.176-0.262,0.265c-2.779,2.96-4.213,6.937-3.962,10.989c-0.154,4.111,1.342,8.114,4.155,11.116
		c4.952,5.316,13.275,5.611,18.592,0.659c0.227-0.212,0.447-0.432,0.658-0.659 M379.517,338.156
		c-4.204-4.565-6.456-10.594-6.272-16.796c-0.312-6.141,1.83-12.154,5.952-16.716c3.866-4.249,9.367-6.638,15.111-6.561
		c3.278-0.094,6.52,0.716,9.368,2.342c2.624,1.49,4.801,3.656,6.305,6.273v-8.021l9.4-0.08l0.401,45.046h-9.4l-0.081-8.423
		c-1.459,2.742-3.61,5.054-6.24,6.706c-2.784,1.733-6.008,2.63-9.288,2.583c-5.753,0.155-11.292-2.185-15.192-6.417"/>
</g>
<rect x="431.711" y="282.928" transform="matrix(-1 0.0087 -0.0087 -1 875.4663 622.52)" fill="#575553" width="9.321" height="60.494"/>
<g>
	<path fill="#575553" d="M484.639,297.955h9.32L494.344,343l-9.319,0.081v-7.106c-2.888,5.197-7.658,7.828-14.31,7.893
		c-4.7,0.181-9.263-1.604-12.593-4.926c-3.337-3.314-5.026-7.999-5.069-14.052l-0.241-26.582h9.24l0.225,25.185
		c-0.196,3.372,0.919,6.688,3.112,9.257c2.167,2.214,5.185,3.384,8.277,3.208c3.098,0.135,6.104-1.062,8.262-3.288
		c2.178-2.591,3.255-5.931,3-9.305L484.639,297.955z"/>
	<path fill="#575553" d="M534.192,307.949c-2.396-2.171-5.544-3.322-8.775-3.208c-3.19-0.081-6.283,1.107-8.599,3.304
		c-2.373,2.372-3.765,5.551-3.897,8.903l25.025-0.208C537.998,313.41,536.634,310.215,534.192,307.949 M525.578,343.337
		c-5.991,0.292-11.823-1.978-16.042-6.24c-4.128-4.213-6.219-9.839-6.272-16.876s1.968-12.678,6.063-16.924
		c8.212-8.986,22.153-9.614,31.14-1.402c4.686,4.282,7.298,10.376,7.168,16.723c0.023,1.476-0.073,2.951-0.288,4.411l-34.49,0.305
		c0.069,3.365,1.458,6.568,3.866,8.919c2.379,2.179,5.52,3.331,8.743,3.209c4.536,0.273,8.772-2.278,10.651-6.417l10.059-0.08
		c-1.298,4.106-3.871,7.692-7.348,10.234c-3.87,2.773-8.539,4.21-13.299,4.091"/>
	<path fill="#575553" d="M333.124,416.729c-4.117-4.214-6.213-9.823-6.288-16.828c-0.075-7.005,1.936-12.651,6.032-16.939
		c4.126-4.312,9.883-6.679,15.849-6.514c4.806-0.228,9.557,1.094,13.555,3.771c3.676,2.679,6.275,6.58,7.331,11.004l-10.058,0.097
		c-1.732-4.727-5.32-7.069-10.764-7.026c-3.504-0.118-6.863,1.406-9.08,4.123c-2.246,2.727-3.336,6.497-3.208,11.357
		c-0.214,4.067,1.019,8.08,3.481,11.325c2.257,2.697,5.647,4.182,9.16,4.011c5.39,0,8.936-2.438,10.636-7.203l10.058-0.08
		c-1.14,4.349-3.704,8.189-7.283,10.908c-3.871,2.829-8.57,4.296-13.363,4.171c-5.989,0.283-11.818-1.984-16.042-6.24"/>
	<path fill="#575553" d="M408.36,410.504c5.358-6.622,5.325-16.099-0.08-22.683c-2.511-2.612-6.003-4.051-9.625-3.962
		c-3.593-0.035-7.031,1.465-9.449,4.122c-2.534,2.728-3.77,6.529-3.737,11.406c0.032,4.876,1.331,8.646,3.866,11.325
		c2.403,2.623,5.829,4.07,9.384,3.962c3.647,0.001,7.132-1.509,9.625-4.171 M398.719,422.52c-6.067,0.262-11.971-2.01-16.298-6.272
		c-4.347-4.474-6.676-10.529-6.449-16.764c-0.582-12.683,9.229-23.435,21.911-24.017c12.683-0.581,23.435,9.229,24.017,21.911
		c0.025,0.552,0.03,1.104,0.017,1.656c0.307,6.32-2.098,12.472-6.609,16.908c-4.398,4.328-10.354,6.704-16.523,6.594"/>
</g>
<rect x="431.077" y="360.974" transform="matrix(-1 0.0087 -0.0087 -1 874.8606 778.637)" fill="#575553" width="9.32" height="60.494"/>
<rect x="452.667" y="360.769" transform="matrix(-1 0.0088 -0.0088 -1 918.0782 777.9917)" fill="#575553" width="9.32" height="60.494"/>
<g>
	<path fill="#575553" d="M502.108,386.266c-2.402-2.16-5.546-3.309-8.774-3.209c-3.202-0.056-6.295,1.162-8.599,3.385
		c-2.363,2.377-3.749,5.554-3.882,8.903l25.009-0.208c0.074-3.349-1.293-6.567-3.754-8.84 M493.51,421.733
		c-5.991,0.3-11.827-1.971-16.041-6.24c-4.129-4.214-6.225-9.833-6.289-16.859s1.957-12.674,6.064-16.94
		c8.225-8.986,22.177-9.603,31.163-1.378c4.675,4.279,7.283,10.361,7.16,16.698c0.023,1.476-0.073,2.951-0.288,4.411l-34.506,0.305
		c0.085,3.364,1.478,6.563,3.882,8.919c2.373,2.188,5.518,3.342,8.742,3.209c4.537,0.273,8.773-2.278,10.652-6.417l10.058-0.08
		c-1.297,4.106-3.871,7.692-7.347,10.234c-3.871,2.771-8.539,4.207-13.299,4.091"/>
	<path fill="#575553" d="M527.92,415.028c-4.117-4.214-6.208-9.823-6.272-16.828s1.941-12.651,6.016-16.94
		c4.127-4.311,9.884-6.676,15.85-6.513c4.806-0.228,9.557,1.094,13.555,3.77c3.682,2.674,6.282,6.578,7.331,11.005l-10.042,0.097
		c-1.732-4.728-5.325-7.069-10.78-7.026c-3.504-0.119-6.862,1.406-9.079,4.123c-4.455,6.926-4.379,15.833,0.192,22.683
		c2.257,2.697,5.646,4.182,9.16,4.011c5.39,0,8.935-2.438,10.651-7.203l10.042-0.08c-1.116,4.377-3.669,8.252-7.251,11.005
		c-3.878,2.827-8.581,4.293-13.379,4.171c-5.989,0.283-11.817-1.984-16.041-6.24"/>
	<path fill="#575553" d="M595.488,382.624l-10.957,0.096l0.225,24.945c-0.111,1.325,0.329,2.638,1.219,3.625
		c1.179,0.837,2.622,1.214,4.059,1.06h5.711l0.081,7.764h-7.363c-8.663,0.075-13.031-4.053-13.106-12.384l-0.225-24.93h-5.31v-7.587
		h5.31l-0.097-11.229h9.401l0.096,11.229l10.957-0.097V382.624z"/>
	<path fill="#575553" d="M604.407,420.001l-0.401-45.045l9.32-0.081l0.401,45.046L604.407,420.001z M614.529,362.925
		c0.054,1.594-0.556,3.139-1.685,4.267c-2.296,2.339-6.055,2.373-8.394,0.076c-1.14-1.119-1.78-2.649-1.776-4.247
		c-0.08-3.241,2.483-5.935,5.725-6.014c0.049-0.001,0.098-0.002,0.146-0.002c1.572-0.069,3.104,0.511,4.235,1.604
		c1.14,1.111,1.772,2.643,1.748,4.234"/>
</g>
<polygon fill="#575553" points="620.272,374.812 630.25,374.731 643.324,411.322 655.757,374.507 665.815,374.41 649.035,419.6 
	637.758,419.712 "/>
<path fill="#575553" d="M700.642,384.532c-2.402-2.159-5.546-3.309-8.774-3.208c-3.201-0.056-6.294,1.162-8.599,3.385
	c-2.363,2.377-3.749,5.554-3.882,8.903l25.009-0.209c0.074-3.348-1.293-6.566-3.754-8.839 M692.044,420.001
	c-5.992,0.3-11.828-1.971-16.042-6.24c-4.117-4.214-6.214-9.839-6.289-16.876c-0.074-7.037,1.947-12.679,6.064-16.924
	c8.225-8.986,22.178-9.603,31.163-1.378c4.675,4.279,7.283,10.361,7.16,16.697c0.008,1.476-0.089,2.95-0.288,4.412l-34.506,0.305
	c0.073,3.367,1.468,6.57,3.882,8.919c2.368,2.185,5.508,3.339,8.727,3.209c4.54,0.271,8.78-2.279,10.668-6.417h10.042
	c-1.285,4.112-3.862,7.701-7.347,10.234c-3.865,2.771-8.528,4.207-13.283,4.091"/>
<path fill="#575553" d="M13.62,160.862c2.438-0.131,4.841,0.621,6.77,2.118c1.67,1.429,2.593,3.546,2.502,5.743
	c0.125,2.208-0.803,4.344-2.502,5.759c-1.955,1.437-4.347,2.151-6.77,2.021l-0.401,0.241H7.09v10.587H2.839v-26.469H13.62z
	 M13.315,173.166c1.372,0.104,2.738-0.27,3.866-1.059c0.873-0.831,1.331-2.006,1.251-3.208c0.082-1.203-0.377-2.379-1.251-3.208
	c-1.106-0.842-2.477-1.263-3.866-1.187H7.09v8.663H13.315z M15.833,174.048l8.614,13.282h-4.925l-7.379-11.598L15.833,174.048z"/>
<path fill="#575553" d="M37.458,187.732c-1.842,0.04-3.664-0.391-5.293-1.251c-1.513-0.81-2.752-2.049-3.562-3.561
	c-0.872-1.735-1.302-3.658-1.251-5.599c-0.056-1.952,0.374-3.887,1.251-5.631c0.796-1.5,2.004-2.74,3.481-3.577
	c1.577-0.845,3.345-1.27,5.133-1.235c1.736-0.055,3.455,0.361,4.973,1.203c1.337,0.772,2.424,1.914,3.128,3.289
	c0.737,1.467,1.106,3.091,1.075,4.732c0,0.481,0,0.93,0,1.363c-0.016,0.376-0.054,0.751-0.112,1.123H30.239v-3.289h14.245
	l-2.133,0.642c0.084-1.559-0.452-3.087-1.492-4.251c-0.967-1.009-2.326-1.548-3.722-1.476c-1.061-0.024-2.107,0.254-3.016,0.802
	c-0.883,0.576-1.567,1.411-1.957,2.39c-0.494,1.228-0.728,2.544-0.69,3.866c-0.038,1.31,0.208,2.612,0.722,3.818
	c0.427,0.978,1.144,1.801,2.053,2.358c0.946,0.557,2.031,0.835,3.128,0.802c1.118,0.048,2.229-0.213,3.208-0.754
	c0.84-0.517,1.523-1.255,1.973-2.133l3.401,1.604c-0.473,0.961-1.133,1.817-1.941,2.519c-0.852,0.722-1.838,1.268-2.903,1.604
	C39.938,187.496,38.703,187.712,37.458,187.732z"/>
<path fill="#575553" d="M63.397,174.449c0.07-1.14-0.33-2.259-1.107-3.096c-0.815-0.771-1.912-1.171-3.032-1.107
	c-1.098-0.042-2.182,0.249-3.112,0.834c-0.922,0.665-1.585,1.628-1.877,2.727l-3.609-1.604c0.497-1.622,1.555-3.015,2.984-3.93
	c1.75-1.028,3.765-1.514,5.791-1.396c1.451-0.032,2.892,0.236,4.235,0.786c1.195,0.495,2.213,1.339,2.919,2.422
	c0.75,1.199,1.12,2.597,1.059,4.01v8.823c-0.105,0.719,0.392,1.387,1.111,1.492c0.126,0.019,0.254,0.019,0.38,0
	c0.473,0.002,0.944-0.068,1.396-0.208l-0.24,2.968c-0.731,0.326-1.527,0.479-2.326,0.449c-0.794,0.008-1.581-0.15-2.31-0.465
	c-0.664-0.292-1.223-0.779-1.604-1.396c-0.408-0.717-0.608-1.534-0.577-2.358v-0.272h0.882c-0.216,1-0.738,1.908-1.492,2.599
	c-0.743,0.713-1.628,1.26-2.599,1.604c-0.971,0.332-1.99,0.5-3.016,0.498c-1.157,0.014-2.306-0.193-3.385-0.61
	c-2.021-0.71-3.33-2.673-3.208-4.812c-0.048-1.379,0.48-2.716,1.459-3.689c1.163-1.049,2.607-1.735,4.155-1.973l7.78-1.604v3.016
	l-5.646,1.155c-0.895,0.132-1.752,0.449-2.519,0.93c-0.571,0.4-0.893,1.069-0.85,1.765c-0.027,0.701,0.298,1.369,0.866,1.781
	c0.673,0.475,1.488,0.707,2.31,0.658c0.654,0.001,1.307-0.08,1.941-0.241c0.608-0.154,1.184-0.415,1.701-0.77
	c0.506-0.365,0.914-0.85,1.187-1.412c0.291-0.65,0.433-1.357,0.417-2.069L63.397,174.449z"/>
<path fill="#575553" d="M78.83,158.247v23.469c-0.079,0.721,0.11,1.445,0.529,2.037c0.472,0.423,1.102,0.627,1.732,0.562
	c0.409,0.006,0.817-0.026,1.219-0.096c0.432-0.093,0.856-0.222,1.267-0.385l-0.481,3.208c-0.512,0.235-1.051,0.408-1.604,0.513
	c-0.581,0.114-1.172,0.173-1.765,0.177c-1.452,0.125-2.888-0.377-3.946-1.38c-0.941-1.22-1.393-2.748-1.268-4.283v-23.822H78.83z"/>
<path fill="#575553" d="M89.337,163.91c-0.776,0.05-1.541-0.203-2.134-0.706c-0.525-0.524-0.8-1.249-0.754-1.989
	c-0.045-0.731,0.23-1.445,0.754-1.957c1.269-0.918,2.983-0.918,4.251,0c0.52,0.513,0.79,1.228,0.738,1.957
	c0.046,0.74-0.229,1.465-0.754,1.989C90.854,163.7,90.102,163.953,89.337,163.91z M91.438,167.278v20.052h-4.251v-20.052H91.438z"/>
<path fill="#575553" d="M96.876,187.331v-2.967l9.625-11.229l2.583-2.567h-3.497h-8.631v-3.289h16.812v2.968l-9.625,11.229
	l-2.406,2.486l3.802-0.08h8.663v3.369L96.876,187.331z"/>
<path fill="#575553" d="M127.917,187.732c-1.842,0.04-3.664-0.391-5.294-1.251c-1.508-0.811-2.741-2.05-3.545-3.561
	c-0.877-1.733-1.313-3.657-1.267-5.599c-0.051-1.953,0.384-3.888,1.267-5.631c0.803-1.51,2.022-2.757,3.513-3.593
	c1.564-0.832,3.314-1.251,5.085-1.219c1.736-0.055,3.454,0.361,4.973,1.203c1.367,0.76,2.482,1.903,3.208,3.289
	c0.742,1.466,1.116,3.09,1.091,4.732c0,0.481,0,0.93,0,1.363c-0.016,0.376-0.053,0.751-0.112,1.123h-16.042v-3.289h13.956
	l-2.117,0.642c0.137-1.532-0.329-3.057-1.299-4.251c-0.971-1.013-2.336-1.552-3.738-1.476c-1.056-0.022-2.096,0.256-3,0.802
	c-0.883,0.58-1.571,1.413-1.973,2.39c-0.5,1.249-0.74,2.586-0.706,3.931c-0.039,1.31,0.208,2.612,0.722,3.818
	c0.421,0.977,1.132,1.8,2.037,2.358c0.97,0.572,2.084,0.851,3.208,0.802c1.118,0.047,2.228-0.214,3.208-0.754
	c0.835-0.518,1.513-1.256,1.957-2.134l3.417,1.604c-0.479,0.957-1.138,1.812-1.941,2.519c-0.857,0.723-1.85,1.268-2.919,1.604
	C130.416,187.543,129.17,187.738,127.917,187.732z"/>
<path fill="#575553" d="M149.975,187.732c-1.59,0.018-3.154-0.416-4.507-1.251c-1.388-0.856-2.501-2.092-3.208-3.561
	c-0.789-1.752-1.163-3.663-1.091-5.583c-0.066-1.951,0.342-3.888,1.187-5.647c1.504-2.98,4.571-4.846,7.909-4.812
	c1.562-0.048,3.092,0.445,4.331,1.396c1.162,0.931,1.99,2.215,2.358,3.658l-0.481,0.433v-14.117h4.299v29.083h-3.818l-0.321-5.454
	h0.562c-0.153,1.136-0.607,2.211-1.315,3.112c-0.692,0.862-1.577,1.548-2.583,2.005
	C152.254,187.475,151.122,187.726,149.975,187.732z M150.905,184.283c1.058,0.028,2.097-0.281,2.968-0.882
	c0.861-0.633,1.528-1.494,1.925-2.486c0.477-1.226,0.706-2.535,0.674-3.85c0.031-1.232-0.199-2.456-0.674-3.593
	c-0.403-0.937-1.065-1.738-1.909-2.31c-2.279-1.381-5.218-0.943-6.994,1.042c-1.07,1.478-1.597,3.28-1.492,5.102
	c-0.102,1.819,0.406,3.62,1.444,5.117C147.812,183.67,149.329,184.366,150.905,184.283z"/>
<path fill="#575553" d="M192.501,167.278v3.369h-15.031v-3.369H192.501z M185.604,161.375v19.94
	c-0.068,0.802,0.219,1.594,0.786,2.166c0.595,0.474,1.342,0.714,2.102,0.674c0.647,0.017,1.291-0.098,1.893-0.337
	c0.541-0.232,1.039-0.552,1.476-0.946l0.962,3.208c-0.66,0.572-1.429,1.003-2.262,1.267c-0.931,0.279-1.9,0.409-2.872,0.385
	c-1.095,0.014-2.183-0.177-3.208-0.562c-0.93-0.346-1.719-0.989-2.246-1.829c-0.571-1.006-0.859-2.148-0.834-3.305v-19.459
	L185.604,161.375z"/>
<path fill="#575553" d="M196.978,187.331v-29.083h4.299v12.24c0.591-1.178,1.54-2.139,2.711-2.743
	c1.174-0.589,2.473-0.886,3.786-0.866c1.323-0.02,2.634,0.26,3.834,0.818c1.119,0.544,2.055,1.403,2.695,2.47
	c0.719,1.269,1.069,2.713,1.011,4.171v12.994h-4.299V175.7c0.161-1.487-0.278-2.977-1.219-4.139
	c-0.829-0.774-1.931-1.189-3.064-1.155c-0.888,0.007-1.761,0.221-2.551,0.625c-0.878,0.448-1.604,1.146-2.085,2.005
	c-0.599,1.14-0.882,2.419-0.818,3.706v10.587H196.978z"/>
<path fill="#575553" d="M221.81,187.331v-20.052h3.642l0.401,3.609c0.464-1.221,1.3-2.264,2.39-2.983
	c1.176-0.72,2.537-1.077,3.915-1.027c0.403,0,0.805,0.032,1.203,0.096c0.345,0.051,0.68,0.154,0.994,0.305l-0.593,3.77
	c-0.323-0.116-0.656-0.202-0.995-0.257c-0.482-0.081-0.971-0.118-1.46-0.112c-0.857,0.01-1.697,0.242-2.438,0.674
	c-0.827,0.455-1.514,1.126-1.989,1.941c-0.565,1.03-0.837,2.195-0.786,3.369v10.636L221.81,187.331z"/>
<path fill="#575553" d="M246.595,166.877c1.799-0.033,3.576,0.392,5.166,1.235c1.492,0.828,2.712,2.07,3.513,3.577
	c0.877,1.733,1.313,3.657,1.267,5.599c0.046,1.942-0.39,3.866-1.267,5.599c-0.794,1.512-2.016,2.756-3.513,3.577
	c-3.248,1.667-7.1,1.667-10.347,0c-1.495-0.83-2.72-2.071-3.529-3.577c-0.89-1.729-1.332-3.654-1.283-5.599
	c-0.048-1.944,0.393-3.87,1.283-5.599c0.813-1.507,2.037-2.753,3.529-3.593C243.01,167.259,244.792,166.839,246.595,166.877z
	 M246.595,170.246c-1.084-0.032-2.155,0.252-3.08,0.818c-0.866,0.59-1.541,1.421-1.941,2.39c-0.483,1.225-0.712,2.534-0.674,3.85
	c-0.034,1.31,0.195,2.614,0.674,3.834c0.395,0.977,1.07,1.813,1.941,2.406c0.925,0.566,1.996,0.851,3.08,0.818
	c2.18,0.13,4.193-1.169,4.973-3.208c0.479-1.22,0.708-2.524,0.674-3.834c0.038-1.316-0.191-2.625-0.674-3.85
	c-0.784-2.037-2.794-3.333-4.973-3.208V170.246z"/>
<path fill="#575553" d="M269.085,187.732c-1.246,0.012-2.48-0.234-3.625-0.722c-1.11-0.476-2.042-1.29-2.663-2.326
	c-0.725-1.267-1.075-2.713-1.011-4.171v-13.235h4.299v12.144c-0.167,1.358,0.254,2.724,1.155,3.753
	c0.911,0.718,2.05,1.082,3.208,1.027c0.662,0,1.318-0.114,1.941-0.337c0.641-0.233,1.222-0.606,1.701-1.091
	c0.537-0.537,0.943-1.19,1.187-1.909c0.292-0.879,0.433-1.801,0.417-2.727v-10.86h4.299v20.052h-3.77l-0.208-3.208
	c-0.621,1.197-1.603,2.168-2.807,2.775C271.917,187.492,270.506,187.778,269.085,187.732z"/>
<path fill="#575553" d="M298.041,184.203c1.712-0.125,3.414,0.352,4.812,1.348c1.091,0.912,1.687,2.286,1.604,3.706
	c0.028,1.32-0.441,2.603-1.315,3.593c-0.982,1.06-2.219,1.85-3.593,2.294c-1.673,0.566-3.432,0.838-5.198,0.802
	c-2.527,0.178-5.054-0.35-7.299-1.524c-1.414-0.75-2.314-2.203-2.358-3.802c-0.014-1.051,0.396-2.063,1.139-2.807
	c1.074-0.92,2.453-1.406,3.866-1.364l-0.24,0.642c-1-0.18-1.932-0.629-2.695-1.3c-0.717-0.7-1.092-1.679-1.026-2.679
	c-0.013-1.12,0.468-2.188,1.315-2.919c1.057-0.868,2.371-1.364,3.738-1.412l2.246,1.091h-0.481
	c-0.936,0.008-1.847,0.299-2.615,0.834c-0.481,0.393-0.758,0.983-0.754,1.604c-0.051,0.596,0.233,1.171,0.738,1.492
	c0.641,0.355,1.37,0.522,2.102,0.481L298.041,184.203z M294.19,166.877c1.576-0.039,3.143,0.246,4.604,0.834
	c1.201,0.498,2.24,1.32,3,2.375c0.717,1.047,1.087,2.292,1.059,3.561c0.028,1.274-0.342,2.524-1.059,3.578
	c-0.761,1.05-1.8,1.867-3,2.358c-1.461,0.594-3.028,0.884-4.604,0.85c-2.291,0.152-4.562-0.507-6.417-1.861
	c-1.464-1.208-2.288-3.027-2.23-4.925c-0.021-1.275,0.367-2.523,1.107-3.561c0.772-1.056,1.822-1.878,3.032-2.375
	C291.112,167.126,292.646,166.843,294.19,166.877z M294.351,192.737c1.228,0.036,2.454-0.104,3.642-0.417
	c0.779-0.191,1.504-0.559,2.118-1.075c0.433-0.371,0.689-0.907,0.706-1.476c0.01-0.586-0.273-1.14-0.754-1.476
	c-0.811-0.451-1.739-0.646-2.663-0.562h-6.417c-0.678-0.023-1.344,0.18-1.893,0.578c-0.5,0.378-0.781,0.978-0.754,1.604
	c0.052,0.96,0.69,1.789,1.604,2.085C291.34,192.56,292.845,192.812,294.351,192.737z M294.19,169.877
	c-1.11-0.032-2.196,0.332-3.064,1.026c-0.81,0.676-1.26,1.689-1.219,2.743c-0.044,1.064,0.406,2.088,1.219,2.775
	c1.825,1.388,4.352,1.388,6.176,0c0.813-0.688,1.263-1.711,1.219-2.775c0.041-1.054-0.409-2.067-1.219-2.743
	C296.421,170.201,295.317,169.836,294.19,169.877z M304.377,163.06l0.689,3.369h-0.481c-1.043-0.071-2.08,0.218-2.936,0.818
	c-0.684,0.6-1.051,1.482-0.995,2.39l-2.085-0.962c-0.018-0.999,0.214-1.985,0.673-2.872c0.454-0.833,1.132-1.522,1.958-1.989
	c0.871-0.49,1.856-0.739,2.855-0.722h0.321L304.377,163.06z"/>
<path fill="#575553" d="M308.388,187.331v-29.083h4.299v12.24c0.589-1.174,1.532-2.133,2.695-2.743
	c1.195-0.595,2.516-0.892,3.85-0.866c1.318-0.021,2.624,0.258,3.818,0.818c1.087,0.554,1.99,1.413,2.599,2.47
	c0.719,1.269,1.069,2.713,1.011,4.171v12.994h-4.219V175.7c0.161-1.487-0.278-2.977-1.219-4.139
	c-0.829-0.774-1.93-1.189-3.064-1.155c-0.888,0.007-1.761,0.221-2.551,0.625c-0.881,0.444-1.607,1.143-2.085,2.005
	c-0.599,1.14-0.881,2.419-0.818,3.706v10.587H308.388z"/>
</svg>
