<?xml version="1.0" encoding="utf-8"?>
<!-- Generator: Adobe Illustrator 16.0.0, SVG Export Plug-In . SVG Version: 6.00 Build 0)  -->
<!DOCTYPE svg PUBLIC "-//W3C//DTD SVG 1.1//EN" "http://www.w3.org/Graphics/SVG/1.1/DTD/svg11.dtd">
<svg version="1.1" id="Layer_1" xmlns="http://www.w3.org/2000/svg" xmlns:xlink="http://www.w3.org/1999/xlink" x="0px" y="0px"
	 width="492.623px" height="186.336px" viewBox="0 0 492.623 186.336" enable-background="new 0 0 492.623 186.336"
	 xml:space="preserve">
<path fill="#FFFFFF" d="M77.72,127.941l9.477,9.515l9.516-9.477l-9.477-9.513L77.72,127.941z M87.211,143.048
	c-0.603,0.005-1.203-0.223-1.662-0.683L72.803,129.57c-0.434-0.435-0.676-1.022-0.675-1.639c0.002-0.615,0.248-1.203,0.684-1.637
	l12.797-12.746c0.906-0.901,2.371-0.896,3.274,0.008l12.746,12.794c0.435,0.437,0.677,1.024,0.675,1.639
	c-0.001,0.616-0.246,1.205-0.682,1.638l-12.797,12.746C88.379,142.818,87.795,143.043,87.211,143.048"/>
<path fill="#FFFFFF" d="M154.821,81.557c-6.187,0.055-11.176,5.131-11.121,11.317c0.053,6.187,5.131,11.176,11.317,11.122
	c6.187-0.055,11.175-5.132,11.121-11.317C166.085,86.492,161.008,81.503,154.821,81.557 M155.058,108.629
	c-8.74,0.076-15.914-6.974-15.991-15.714c-0.075-8.741,6.974-15.914,15.714-15.991c8.741-0.076,15.916,6.975,15.991,15.714
	C170.848,101.379,163.798,108.553,155.058,108.629"/>
<path fill="#FFFFFF" d="M122.19,170.624c-8.74,0.076-15.914-6.973-15.99-15.714c-0.012-1.28,1.016-2.325,2.296-2.337
	c1.28-0.011,2.325,1.016,2.337,2.297c0.054,6.187,5.131,11.175,11.318,11.121c6.186-0.054,11.175-5.131,11.121-11.317
	c-0.012-1.28,1.016-2.325,2.295-2.337c1.281-0.011,2.326,1.016,2.338,2.296C137.981,163.374,130.931,170.548,122.19,170.624"/>
<path fill="#FFFFFF" d="M117.68,139.097l8.491,0.001l0.252-31.989l-8.521,0.002L117.68,139.097z M128.489,143.731h-0.021
	l-13.121-0.001c-0.618,0.001-1.208-0.247-1.644-0.685c-0.435-0.438-0.676-1.031-0.674-1.647l0.254-36.621
	c0.009-1.274,1.033-2.321,2.316-2.3l13.157-0.002c0.616-0.002,1.21,0.246,1.644,0.685c0.437,0.438,0.676,1.032,0.672,1.65
	l-0.289,36.623C130.776,142.698,129.751,143.72,128.489,143.731"/>
<path fill="#FFFFFF" d="M80.659,85.261l-0.009,16.31l14.124-8.125L80.659,85.261z M78.351,107.894
	c-0.407,0.004-0.814-0.1-1.182-0.312c-0.717-0.414-1.154-1.18-1.155-2.008l0.016-24.336c0-0.828,0.443-1.594,1.161-2.006
	c0.719-0.41,1.604-0.41,2.316,0.006l21.06,12.211c0.716,0.414,1.157,1.178,1.156,2.006c-0.002,0.826-0.444,1.59-1.162,2.004
	l-21.075,12.125C79.135,107.787,78.741,107.891,78.351,107.894"/>
<path fill="#FFFFFF" d="M147.858,139.144l18.182-0.051l-8.951-19.573L147.858,139.144z M169.661,143.715h-0.014l-25.438,0.07
	c-0.794,0.003-1.534-0.403-1.961-1.073c-0.427-0.668-0.479-1.511-0.142-2.228l12.918-27.455c0.384-0.816,1.188-1.308,2.109-1.331
	c0.9,0.006,1.717,0.533,2.094,1.353l12.521,27.385c0.327,0.717,0.269,1.55-0.157,2.213
	C171.168,143.306,170.444,143.708,169.661,143.715"/>
<path fill="#FFFFFF" d="M127.989,87.799c-0.402,0.004-0.812-0.097-1.186-0.314c-2.996-1.75-3.685-4.251-4.187-6.074
	c-0.467-1.693-0.751-2.541-2.058-3.305c-1.295-0.754-2.17-0.579-3.865-0.143c-1.837,0.475-4.352,1.123-7.36-0.634
	c-2.993-1.724-3.672-4.231-4.168-6.062c-0.456-1.682-0.731-2.523-2.024-3.268c-1.299-0.75-2.17-0.568-3.854-0.136
	c-1.828,0.478-4.331,1.121-7.33-0.604c-3.008-1.732-3.688-4.24-4.184-6.072c-0.453-1.682-0.73-2.523-2.021-3.266
	c-1.106-0.64-1.488-2.055-0.851-3.164c0.639-1.105,2.054-1.49,3.164-0.851c3.008,1.733,3.687,4.241,4.181,6.071
	c0.454,1.681,0.73,2.523,2.024,3.267c1.303,0.755,2.172,0.572,3.854,0.136c1.826-0.477,4.329-1.125,7.33,0.604
	c3.009,1.733,3.687,4.241,4.183,6.071c0.455,1.681,0.731,2.522,2.023,3.267c1.309,0.767,2.184,0.59,3.876,0.151
	c1.837-0.478,4.359-1.121,7.36,0.631c2.992,1.75,3.682,4.248,4.184,6.072c0.467,1.693,0.75,2.539,2.059,3.305
	c1.104,0.646,1.477,2.066,0.832,3.169C129.544,87.383,128.778,87.793,127.989,87.799"/>
<path fill="#FFFFFF" d="M490.327,183.089l-372.045,3.247c-1.28,0.011-2.325-1.017-2.336-2.296c-0.012-1.281,1.015-2.326,2.296-2.337
	l369.728-3.227L486.823,46.98l-369.729,3.226c-1.281,0.011-2.326-1.017-2.336-2.296c-0.013-1.28,1.014-2.325,2.295-2.338
	l372.045-3.245c1.28-0.013,2.325,1.016,2.337,2.296l1.188,136.129C492.634,182.033,491.607,183.078,490.327,183.089"/>
<g>
	<path fill="#FFFFFF" d="M6.2,12.05H2.649v6.601H0V2.15h6.725c1.783,0,3.191,0.438,4.226,1.312C11.983,4.338,12.5,5.55,12.5,7.1
		c0,1.184-0.305,2.172-0.913,2.963S10.116,11.416,9,11.75l4.475,6.9h-3.075L6.2,12.05z M2.649,9.824H6.5
		c1.083,0,1.892-0.221,2.425-0.662s0.8-1.121,0.8-2.037s-0.267-1.596-0.8-2.037S7.583,4.425,6.5,4.425H2.649V9.824z"/>
	<path fill="#FFFFFF" d="M27.149,13.4h-9.15c0.15,1.1,0.542,1.938,1.176,2.512c0.633,0.575,1.449,0.863,2.449,0.863
		c0.816,0,1.496-0.146,2.038-0.438c0.542-0.292,0.913-0.713,1.112-1.264L26.999,16c-0.934,1.934-2.725,2.9-5.375,2.9
		c-1.967,0-3.504-0.576-4.611-1.726c-1.109-1.149-1.663-2.741-1.663-4.774c0-2.051,0.533-3.646,1.601-4.788
		c1.066-1.142,2.566-1.712,4.5-1.712c1.832,0,3.258,0.559,4.274,1.674c1.017,1.117,1.524,2.601,1.524,4.451
		C27.249,12.508,27.216,12.967,27.149,13.4z M19.112,8.875c-0.592,0.566-0.963,1.392-1.113,2.475h6.75
		c-0.133-1.05-0.486-1.866-1.062-2.449c-0.574-0.584-1.32-0.875-2.236-0.875C20.483,8.025,19.704,8.309,19.112,8.875z"/>
	<path fill="#FFFFFF" d="M42.324,16.8l-0.175,1.8c-0.45,0.2-0.967,0.301-1.55,0.301c-0.717,0-1.288-0.143-1.713-0.426
		s-0.704-0.758-0.837-1.425c-0.384,0.583-0.95,1.038-1.7,1.362c-0.75,0.325-1.592,0.488-2.525,0.488c-1.217,0-2.2-0.283-2.95-0.851
		c-0.75-0.566-1.125-1.375-1.125-2.425c0-0.983,0.408-1.812,1.226-2.488c0.816-0.674,2.033-1.153,3.649-1.438L37.8,11.15v-0.676
		c0-0.766-0.226-1.371-0.676-1.812C36.675,8.221,36.05,8,35.249,8c-1.649,0-2.725,0.75-3.225,2.25l-2.075-1.1
		c0.3-1,0.913-1.792,1.838-2.375C32.712,6.191,33.85,5.9,35.199,5.9c1.616,0,2.9,0.375,3.851,1.125
		c0.949,0.75,1.425,1.85,1.425,3.299v5.65c0,0.316,0.07,0.551,0.212,0.7s0.379,0.226,0.713,0.226
		C41.766,16.9,42.074,16.867,42.324,16.8z M36.774,16.225c0.684-0.434,1.025-1.008,1.025-1.725V13l-2.726,0.55
		c-0.866,0.167-1.509,0.399-1.925,0.7c-0.417,0.3-0.625,0.699-0.625,1.199c0,0.467,0.162,0.822,0.487,1.062
		c0.325,0.242,0.788,0.363,1.388,0.363C35.3,16.875,36.091,16.658,36.774,16.225z"/>
	<path fill="#FFFFFF" d="M47.449,15c0,0.617,0.092,1.046,0.275,1.287c0.183,0.242,0.524,0.363,1.024,0.363
		c0.316,0,0.588-0.021,0.812-0.062c0.226-0.042,0.504-0.129,0.838-0.264l-0.3,2.15c-0.567,0.283-1.259,0.426-2.075,0.426
		c-1.117,0-1.938-0.283-2.463-0.851c-0.524-0.566-0.787-1.458-0.787-2.675V0.525h2.675V15z"/>
	<path fill="#FFFFFF" d="M52.675,3.612c-0.317-0.292-0.476-0.704-0.476-1.237s0.158-0.941,0.476-1.225
		c0.316-0.283,0.758-0.426,1.324-0.426s1.004,0.143,1.312,0.426s0.463,0.691,0.463,1.225S55.62,3.32,55.312,3.612
		S54.565,4.05,53.999,4.05S52.991,3.904,52.675,3.612z M55.324,18.65h-2.675V6.15h2.675V18.65z"/>
	<path fill="#FFFFFF" d="M60.661,18.25c-0.975-0.434-1.713-1.092-2.213-1.975l1.801-1.551c0.316,0.717,0.809,1.242,1.475,1.575
		s1.467,0.5,2.4,0.5c0.85,0,1.508-0.138,1.975-0.413c0.467-0.274,0.7-0.637,0.7-1.087c0-0.399-0.217-0.721-0.649-0.962
		c-0.434-0.242-1.184-0.471-2.25-0.688c-1.851-0.351-3.15-0.816-3.9-1.4s-1.125-1.408-1.125-2.475c0-0.684,0.208-1.321,0.625-1.913
		c0.416-0.591,1.021-1.066,1.812-1.425C62.103,6.079,63.04,5.9,64.124,5.9c1.383,0,2.491,0.229,3.324,0.688
		c0.834,0.458,1.476,1.17,1.926,2.137l-1.9,1.4c-0.3-0.733-0.721-1.271-1.262-1.613C65.669,8.171,64.981,8,64.149,8
		c-0.75,0-1.371,0.154-1.863,0.463s-0.737,0.662-0.737,1.062c0,0.449,0.221,0.809,0.663,1.074c0.441,0.268,1.245,0.509,2.412,0.725
		c1.766,0.317,3.016,0.768,3.75,1.351c0.732,0.583,1.1,1.399,1.1,2.45c0,1.117-0.483,2.025-1.449,2.725
		c-0.967,0.7-2.301,1.051-4,1.051C62.757,18.9,61.636,18.684,60.661,18.25z"/>
	<path fill="#FFFFFF" d="M83.648,13.4h-9.149c0.149,1.1,0.541,1.938,1.174,2.512c0.634,0.575,1.451,0.863,2.451,0.863
		c0.816,0,1.495-0.146,2.037-0.438c0.541-0.292,0.912-0.713,1.112-1.264L83.499,16c-0.934,1.934-2.726,2.9-5.375,2.9
		c-1.967,0-3.505-0.576-4.613-1.726s-1.662-2.741-1.662-4.774c0-2.051,0.533-3.646,1.6-4.788s2.566-1.712,4.5-1.712
		c1.834,0,3.258,0.559,4.275,1.674c1.016,1.117,1.525,2.601,1.525,4.451C83.749,12.508,83.715,12.967,83.648,13.4z M75.61,8.875
		c-0.592,0.566-0.962,1.392-1.111,2.475h6.75c-0.135-1.05-0.488-1.866-1.062-2.449c-0.576-0.584-1.322-0.875-2.238-0.875
		C76.981,8.025,76.202,8.309,75.61,8.875z M80.974,0l-2.475,4.199h-2.051L78.273,0H80.974z"/>
	<path fill="#FFFFFF" d="M106.648,16.8l-0.175,1.8c-0.45,0.2-0.967,0.301-1.55,0.301c-0.717,0-1.288-0.143-1.713-0.426
		s-0.704-0.758-0.837-1.425c-0.384,0.583-0.95,1.038-1.7,1.362c-0.75,0.325-1.592,0.488-2.525,0.488c-1.217,0-2.2-0.283-2.95-0.851
		c-0.75-0.566-1.125-1.375-1.125-2.425c0-0.983,0.408-1.812,1.226-2.488c0.816-0.674,2.033-1.153,3.649-1.438l3.176-0.549v-0.676
		c0-0.766-0.226-1.371-0.676-1.812C100.999,8.221,100.374,8,99.573,8c-1.649,0-2.725,0.75-3.225,2.25l-2.075-1.1
		c0.3-1,0.913-1.792,1.838-2.375C97.036,6.191,98.174,5.9,99.523,5.9c1.616,0,2.9,0.375,3.851,1.125
		c0.949,0.75,1.425,1.85,1.425,3.299v5.65c0,0.316,0.07,0.551,0.212,0.7s0.379,0.226,0.713,0.226
		C106.09,16.9,106.398,16.867,106.648,16.8z M100.974,4.199h-2.05L96.448,0h2.7L100.974,4.199z M101.099,16.225
		c0.684-0.434,1.025-1.008,1.025-1.725V13l-2.726,0.55c-0.866,0.167-1.509,0.399-1.925,0.7c-0.417,0.3-0.625,0.699-0.625,1.199
		c0,0.467,0.162,0.822,0.487,1.062c0.325,0.242,0.788,0.363,1.388,0.363C99.624,16.875,100.415,16.658,101.099,16.225z"/>
	<path fill="#FFFFFF" d="M125.099,17.824c-0.4,0.334-0.888,0.597-1.463,0.788c-0.574,0.191-1.195,0.288-1.862,0.288
		c-1.149,0-2.071-0.288-2.763-0.863c-0.691-0.574-1.046-1.471-1.062-2.688v-7.1h-2.375v-2.1h2.375V3.225l2.676-0.75V6.15h4.375v2.1
		h-4.375v6.65c0,0.6,0.162,1.045,0.486,1.337c0.326,0.292,0.771,0.438,1.338,0.438c0.767,0,1.441-0.267,2.025-0.8L125.099,17.824z"
		/>
	<path fill="#FFFFFF" d="M135.272,6.15L134.849,8.6c-0.385-0.217-0.909-0.324-1.576-0.324c-0.533,0-1.037,0.141-1.512,0.424
		c-0.475,0.284-0.867,0.709-1.176,1.275s-0.462,1.25-0.462,2.051v6.625h-2.675V6.15h2.275l0.225,2.25
		c0.699-1.667,2.016-2.5,3.949-2.5C134.481,5.9,134.939,5.983,135.272,6.15z"/>
	<path fill="#FFFFFF" d="M149.372,16.8l-0.174,1.8c-0.451,0.2-0.967,0.301-1.551,0.301c-0.717,0-1.287-0.143-1.713-0.426
		c-0.424-0.283-0.703-0.758-0.837-1.425c-0.384,0.583-0.95,1.038-1.7,1.362c-0.75,0.325-1.592,0.488-2.525,0.488
		c-1.217,0-2.199-0.283-2.949-0.851c-0.75-0.566-1.125-1.375-1.125-2.425c0-0.983,0.408-1.812,1.225-2.488
		c0.816-0.674,2.033-1.153,3.65-1.438l3.175-0.549v-0.676c0-0.766-0.226-1.371-0.675-1.812C143.723,8.221,143.098,8,142.298,8
		c-1.65,0-2.725,0.75-3.225,2.25l-2.076-1.1c0.301-1,0.913-1.792,1.838-2.375c0.926-0.584,2.062-0.875,3.412-0.875
		c1.617,0,2.9,0.375,3.851,1.125s1.425,1.85,1.425,3.299v5.65c0,0.316,0.07,0.551,0.213,0.7c0.141,0.149,0.379,0.226,0.713,0.226
		C148.813,16.9,149.122,16.867,149.372,16.8z M143.823,16.225c0.683-0.434,1.024-1.008,1.024-1.725V13l-2.726,0.55
		c-0.866,0.167-1.508,0.399-1.924,0.7c-0.418,0.3-0.625,0.699-0.625,1.199c0,0.467,0.162,0.822,0.486,1.062
		c0.326,0.242,0.788,0.363,1.389,0.363C142.348,16.875,143.14,16.658,143.823,16.225z"/>
	<path fill="#FFFFFF" d="M162.772,6.15l-4.975,12.5h-2.926l-5-12.5h2.95l3.524,10.324l3.625-10.324H162.772z"/>
	<path fill="#FFFFFF" d="M175.973,13.4h-9.149c0.149,1.1,0.541,1.938,1.174,2.512c0.634,0.575,1.451,0.863,2.451,0.863
		c0.816,0,1.495-0.146,2.037-0.438c0.541-0.292,0.912-0.713,1.112-1.264L175.823,16c-0.934,1.934-2.726,2.9-5.375,2.9
		c-1.967,0-3.505-0.576-4.613-1.726s-1.662-2.741-1.662-4.774c0-2.051,0.533-3.646,1.6-4.788s2.566-1.712,4.5-1.712
		c1.834,0,3.258,0.559,4.275,1.674c1.016,1.117,1.525,2.601,1.525,4.451C176.073,12.508,176.039,12.967,175.973,13.4z
		 M167.935,8.875c-0.592,0.566-0.962,1.392-1.111,2.475h6.75c-0.135-1.05-0.488-1.866-1.062-2.449
		c-0.576-0.584-1.322-0.875-2.238-0.875C169.306,8.025,168.526,8.309,167.935,8.875z"/>
	<path fill="#FFFFFF" d="M187.097,6.15L186.673,8.6c-0.385-0.217-0.909-0.324-1.576-0.324c-0.533,0-1.037,0.141-1.512,0.424
		c-0.475,0.284-0.867,0.709-1.176,1.275s-0.462,1.25-0.462,2.051v6.625h-2.675V6.15h2.275l0.225,2.25
		c0.699-1.667,2.016-2.5,3.949-2.5C186.306,5.9,186.764,5.983,187.097,6.15z"/>
	<path fill="#FFFFFF" d="M190.634,18.25c-0.975-0.434-1.712-1.092-2.212-1.975l1.8-1.551c0.316,0.717,0.809,1.242,1.475,1.575
		c0.667,0.333,1.467,0.5,2.4,0.5c0.85,0,1.508-0.138,1.975-0.413c0.467-0.274,0.701-0.637,0.701-1.087
		c0-0.399-0.217-0.721-0.65-0.962c-0.434-0.242-1.184-0.471-2.25-0.688c-1.85-0.351-3.15-0.816-3.9-1.4s-1.125-1.408-1.125-2.475
		c0-0.684,0.209-1.321,0.625-1.913c0.416-0.591,1.021-1.066,1.812-1.425s1.729-0.537,2.812-0.537c1.383,0,2.492,0.229,3.325,0.688
		c0.833,0.458,1.476,1.17,1.925,2.137l-1.9,1.4c-0.299-0.733-0.721-1.271-1.262-1.613C195.643,8.171,194.955,8,194.122,8
		c-0.75,0-1.371,0.154-1.863,0.463c-0.491,0.309-0.736,0.662-0.736,1.062c0,0.449,0.221,0.809,0.662,1.074
		c0.441,0.268,1.246,0.509,2.412,0.725c1.767,0.317,3.017,0.768,3.75,1.351s1.1,1.399,1.1,2.45c0,1.117-0.482,2.025-1.449,2.725
		c-0.967,0.7-2.301,1.051-4,1.051C192.729,18.9,191.609,18.684,190.634,18.25z"/>
</g>
<g>
	<path fill="#FFFFFF" d="M216.04,108.174l7.762-22.152l6.223-0.055l-10.464,28.194l-7.038,0.062l-10.955-28.007l6.221-0.054
		L216.04,108.174z"/>
	<path fill="#FFFFFF" d="M251.967,87.307c1.812,1.242,3.102,2.896,3.868,4.964l-0.057-6.528l5.813-0.051l0.245,28.101l-5.813,0.051
		l-0.057-6.528c-0.73,2.08-1.991,3.759-3.781,5.031c-1.792,1.274-3.962,1.922-6.512,1.945c-2.448,0.021-4.638-0.538-6.568-1.678
		c-1.931-1.139-3.45-2.791-4.557-4.959c-1.108-2.166-1.674-4.729-1.7-7.687c-0.025-2.924,0.496-5.478,1.566-7.663
		c1.068-2.186,2.559-3.865,4.469-5.037c1.911-1.172,4.091-1.77,6.538-1.791C247.972,85.453,250.153,86.064,251.967,87.307z
		 M241.077,93.088c-1.533,1.662-2.286,3.938-2.261,6.828s0.818,5.152,2.38,6.788s3.633,2.442,6.218,2.419
		c1.632-0.014,3.09-0.409,4.376-1.186c1.285-0.775,2.296-1.863,3.031-3.265c0.735-1.399,1.096-3.036,1.079-4.906
		c-0.016-1.836-0.404-3.456-1.164-4.86c-0.761-1.404-1.79-2.483-3.089-3.236c-1.299-0.754-2.764-1.124-4.396-1.109
		C244.667,90.582,242.609,91.426,241.077,93.088z"/>
	<path fill="#FFFFFF" d="M274.308,75.941l0.329,37.738l-5.813,0.051l-0.33-37.738L274.308,75.941z"/>
	<path fill="#FFFFFF" d="M307.468,100.489l-21.622,0.188c0.127,2.891,0.944,5.024,2.453,6.406c1.508,1.381,3.366,2.062,5.576,2.042
		c1.938-0.017,3.574-0.524,4.909-1.522c1.334-0.997,2.146-2.313,2.438-3.948l6.222-0.054c-0.357,1.976-1.123,3.732-2.3,5.273
		c-1.177,1.54-2.713,2.752-4.61,3.636c-1.896,0.884-4.017,1.336-6.362,1.356c-2.721,0.023-5.13-0.533-7.231-1.672
		c-2.101-1.137-3.756-2.788-4.965-4.955c-1.21-2.165-1.826-4.727-1.853-7.686c-0.025-2.924,0.547-5.479,1.719-7.664
		c1.171-2.186,2.797-3.867,4.877-5.041c2.082-1.174,4.481-1.773,7.201-1.797c2.754-0.023,5.164,0.525,7.231,1.646
		c2.066,1.122,3.661,2.671,4.784,4.649c1.121,1.98,1.693,4.193,1.715,6.641C307.659,98.94,307.598,99.774,307.468,100.489z
		 M300.8,93.28c-0.708-1.234-1.667-2.144-2.879-2.729c-1.212-0.584-2.532-0.87-3.96-0.857c-2.278,0.02-4.176,0.734-5.693,2.141
		c-1.518,1.408-2.334,3.472-2.445,6.193l15.962-0.141C301.836,96.051,301.508,94.516,300.8,93.28z"/>
	<path fill="#FFFFFF" d="M339.057,85.016l0.245,28.1l-5.865,0.052l-0.054-6.12c-0.695,2.08-1.923,3.697-3.681,4.852
		c-1.759,1.155-3.811,1.742-6.156,1.764c-3.263,0.027-5.891-1.003-7.88-3.094c-1.991-2.091-3.003-5.092-3.037-9.002l-0.142-16.318
		l5.813-0.051l0.137,15.707c0.022,2.55,0.685,4.507,1.99,5.873c1.303,1.365,3.076,2.039,5.32,2.02
		c2.312-0.02,4.157-0.784,5.539-2.293c1.381-1.508,2.059-3.689,2.034-6.546l-0.13-14.892L339.057,85.016z"/>
	<path fill="#FFFFFF" d="M355.946,86.016c1.758-1.086,3.793-1.64,6.105-1.66l0.056,6.324l-1.734,0.016
		c-2.55,0.021-4.593,0.66-6.129,1.914c-1.537,1.256-2.292,3.31-2.267,6.166l0.124,14.229l-5.813,0.051l-0.245-28.1l5.813-0.051
		l0.048,5.508C352.839,88.566,354.187,87.103,355.946,86.016z"/>
</g>
<g>
	<path fill="#FFFFFF" d="M226.284,136.519c2.396,1.899,3.898,4.497,4.506,7.788l-6.172,0.055c-0.355-1.764-1.192-3.143-2.51-4.135
		c-1.318-0.991-2.963-1.479-4.934-1.461c-2.244,0.02-4.107,0.826-5.59,2.42c-1.482,1.595-2.21,3.92-2.184,6.98
		c0.027,3.061,0.795,5.383,2.305,6.967c1.51,1.586,3.388,2.367,5.632,2.348c1.972-0.017,3.607-0.541,4.907-1.572
		s2.112-2.432,2.438-4.203l6.17-0.055c-0.549,3.305-2.006,5.934-4.367,7.894c-2.363,1.958-5.364,2.954-9.002,2.985
		c-2.721,0.024-5.13-0.533-7.231-1.671c-2.101-1.138-3.755-2.788-4.964-4.955c-1.21-2.165-1.827-4.728-1.854-7.686
		c-0.025-2.924,0.547-5.478,1.719-7.664c1.171-2.187,2.797-3.866,4.877-5.041c2.082-1.175,4.481-1.773,7.202-1.798
		C220.87,133.684,223.887,134.618,226.284,136.519z"/>
	<path fill="#FFFFFF" d="M256.259,135.109c2.188,1.137,3.902,2.788,5.145,4.953c1.244,2.165,1.877,4.709,1.902,7.633
		c0.025,2.957-0.562,5.53-1.768,7.717c-1.205,2.188-2.891,3.869-5.057,5.043c-2.166,1.175-4.609,1.774-7.328,1.799
		c-2.721,0.023-5.164-0.533-7.334-1.671c-2.17-1.137-3.883-2.796-5.143-4.979c-1.262-2.182-1.904-4.734-1.93-7.659
		c-0.025-2.924,0.572-5.478,1.795-7.665c1.223-2.186,2.906-3.867,5.057-5.042c2.148-1.175,4.582-1.774,7.303-1.798
		C251.62,133.415,254.073,133.972,256.259,135.109z M244.823,139.545c-1.252,0.691-2.254,1.744-3.006,3.162
		c-0.754,1.418-1.121,3.145-1.104,5.186c0.02,2.074,0.416,3.805,1.193,5.191c0.777,1.389,1.797,2.416,3.061,3.086
		c1.264,0.669,2.645,0.996,4.141,0.982c1.496-0.013,2.869-0.363,4.121-1.055s2.256-1.737,3.008-3.139
		c0.752-1.4,1.121-3.138,1.102-5.212c-0.018-2.04-0.416-3.761-1.191-5.165c-0.777-1.404-1.799-2.44-3.062-3.109
		c-1.264-0.67-2.645-0.998-4.139-0.984C247.448,138.501,246.075,138.854,244.823,139.545z"/>
	<path fill="#FFFFFF" d="M274.522,123.932l0.33,37.74l-5.814,0.051l-0.33-37.74L274.522,123.932z"/>
	<path fill="#FFFFFF" d="M287.374,123.82l0.33,37.738l-5.814,0.051l-0.33-37.738L287.374,123.82z"/>
	<path fill="#FFFFFF" d="M320.536,148.368l-21.623,0.188c0.127,2.891,0.943,5.025,2.453,6.406c1.506,1.381,3.367,2.062,5.576,2.043
		c1.939-0.018,3.574-0.525,4.908-1.523c1.336-0.996,2.148-2.313,2.439-3.948l6.223-0.054c-0.357,1.976-1.123,3.732-2.301,5.273
		c-1.176,1.54-2.713,2.752-4.609,3.636s-4.018,1.336-6.363,1.356c-2.721,0.023-5.131-0.533-7.232-1.672
		c-2.1-1.137-3.756-2.788-4.965-4.955c-1.209-2.165-1.826-4.727-1.852-7.686c-0.025-2.924,0.547-5.478,1.719-7.664
		c1.17-2.186,2.797-3.865,4.877-5.041c2.082-1.174,4.48-1.773,7.201-1.797c2.754-0.023,5.164,0.524,7.232,1.646
		c2.066,1.12,3.66,2.67,4.783,4.649c1.121,1.979,1.693,4.192,1.715,6.64C320.728,146.82,320.665,147.653,320.536,148.368z
		 M313.868,141.159c-0.709-1.233-1.668-2.144-2.879-2.729c-1.213-0.583-2.533-0.87-3.961-0.858c-2.279,0.02-4.176,0.734-5.693,2.142
		c-1.518,1.408-2.334,3.472-2.445,6.192l15.963-0.14C314.903,143.93,314.575,142.396,313.868,141.159z"/>
	<path fill="#FFFFFF" d="M347.759,135.458c2.396,1.899,3.898,4.497,4.506,7.788l-6.17,0.055c-0.355-1.764-1.193-3.143-2.51-4.135
		c-1.318-0.991-2.963-1.479-4.934-1.461c-2.244,0.02-4.107,0.826-5.59,2.42c-1.482,1.595-2.211,3.92-2.184,6.98
		c0.025,3.061,0.795,5.383,2.305,6.967c1.51,1.586,3.387,2.367,5.631,2.348c1.973-0.017,3.607-0.541,4.908-1.572
		c1.299-1.031,2.113-2.432,2.438-4.203l6.17-0.055c-0.551,3.305-2.006,5.934-4.369,7.894c-2.361,1.958-5.363,2.954-9,2.985
		c-2.721,0.024-5.131-0.533-7.232-1.671s-3.756-2.788-4.965-4.955c-1.209-2.165-1.826-4.728-1.852-7.686
		c-0.025-2.924,0.547-5.478,1.719-7.664c1.17-2.187,2.795-3.866,4.877-5.041s4.48-1.773,7.201-1.798
		C342.345,132.623,345.364,133.558,347.759,135.458z"/>
	<path fill="#FFFFFF" d="M372.724,155.768l0.043,5.049l-3.568,0.031c-2.992,0.026-5.268-0.676-6.828-2.108
		c-1.559-1.431-2.354-3.829-2.383-7.195l-0.119-13.77l-4.029,0.035l-0.043-4.946l4.029-0.035l-0.062-6.987l5.865-0.052l0.061,6.988
		l6.783-0.061l0.043,4.947l-6.783,0.059l0.121,13.871c0.014,1.6,0.322,2.701,0.922,3.309c0.6,0.605,1.648,0.902,3.145,0.891
		L372.724,155.768z"/>
	<path fill="#FFFFFF" d="M378.089,122.059c0.674-0.65,1.572-0.982,2.695-0.992c1.121-0.01,2.033,0.307,2.736,0.945
		c0.703,0.641,1.059,1.453,1.068,2.439c0.008,0.986-0.334,1.788-1.025,2.405c-0.691,0.618-1.6,0.933-2.721,0.942
		c-1.123,0.01-2.025-0.289-2.711-0.895s-1.033-1.401-1.041-2.388S377.415,122.711,378.089,122.059z M383.792,132.619l0.246,28.1
		l-5.814,0.051l-0.246-28.1L383.792,132.619z"/>
	<path fill="#FFFFFF" d="M402.548,154.539l7.764-22.152l6.221-0.054l-10.465,28.192l-7.037,0.062l-10.955-28.007l6.223-0.054
		L402.548,154.539z"/>
	<path fill="#FFFFFF" d="M446.345,147.27l-21.623,0.189c0.127,2.89,0.943,5.023,2.453,6.406c1.508,1.381,3.367,2.061,5.578,2.041
		c1.938-0.016,3.572-0.523,4.908-1.521c1.334-0.998,2.146-2.314,2.439-3.949l6.221-0.054c-0.357,1.976-1.123,3.732-2.299,5.273
		c-1.178,1.54-2.713,2.753-4.611,3.636c-1.896,0.885-4.016,1.336-6.363,1.357c-2.721,0.023-5.129-0.534-7.23-1.672
		c-2.102-1.137-3.758-2.789-4.965-4.955c-1.209-2.166-1.826-4.728-1.852-7.686c-0.025-2.924,0.547-5.479,1.719-7.664
		c1.168-2.187,2.795-3.867,4.877-5.041c2.08-1.175,4.479-1.773,7.199-1.797c2.754-0.024,5.164,0.523,7.232,1.646
		c2.066,1.12,3.662,2.671,4.785,4.649c1.119,1.98,1.691,4.193,1.713,6.641C446.536,145.721,446.474,146.555,446.345,147.27z
		 M439.677,140.061c-0.707-1.234-1.668-2.144-2.879-2.729c-1.213-0.583-2.531-0.871-3.961-0.857
		c-2.277,0.02-4.176,0.733-5.693,2.141c-1.518,1.408-2.334,3.473-2.445,6.192l15.963-0.14
		C440.714,142.832,440.386,141.297,439.677,140.061z"/>
</g>
</svg>
