<?xml version="1.0" encoding="utf-8"?>
<!-- Generator: Adobe Illustrator 16.0.0, SVG Export Plug-In . SVG Version: 6.00 Build 0)  -->
<!DOCTYPE svg PUBLIC "-//W3C//DTD SVG 1.1//EN" "http://www.w3.org/Graphics/SVG/1.1/DTD/svg11.dtd">
<svg version="1.1" id="Layer_1" xmlns="http://www.w3.org/2000/svg" xmlns:xlink="http://www.w3.org/1999/xlink" x="0px" y="0px"
	 width="494.811px" height="186.371px" viewBox="0 0 494.811 186.371" enable-background="new 0 0 494.811 186.371"
	 xml:space="preserve">
<path fill="#30B2D0" d="M79.907,129.093l9.476,9.515l9.516-9.477l-9.476-9.514L79.907,129.093z M89.398,144.198
	c-0.602,0.005-1.203-0.224-1.662-0.683L74.99,130.723c-0.434-0.437-0.676-1.023-0.675-1.64c0.002-0.615,0.248-1.203,0.683-1.638
	l12.797-12.746c0.906-0.9,2.372-0.896,3.275,0.009l12.746,12.794c0.434,0.436,0.677,1.023,0.675,1.639
	c-0.001,0.616-0.247,1.203-0.682,1.637l-12.797,12.746C90.566,143.969,89.982,144.193,89.398,144.198"/>
<path fill="#30B2D0" d="M157.009,82.708c-6.187,0.054-11.176,5.131-11.122,11.315c0.054,6.188,5.131,11.177,11.318,11.123
	c6.186-0.055,11.175-5.131,11.121-11.316C168.271,87.643,163.195,82.653,157.009,82.708 M157.245,109.779
	c-8.74,0.076-15.914-6.973-15.991-15.715c-0.076-8.74,6.974-15.914,15.714-15.99c8.741-0.075,15.915,6.975,15.991,15.715
	S165.984,109.703,157.245,109.779"/>
<path fill="#30B2D0" d="M124.378,171.775c-8.741,0.076-15.915-6.975-15.991-15.715c-0.011-1.279,1.016-2.324,2.296-2.338
	c1.281-0.01,2.326,1.018,2.337,2.299c0.054,6.186,5.131,11.174,11.318,11.121c6.186-0.055,11.175-5.133,11.121-11.317
	c-0.011-1.281,1.016-2.326,2.296-2.337c1.281-0.012,2.326,1.017,2.337,2.296C140.168,164.525,133.118,171.699,124.378,171.775"/>
<path fill="#30B2D0" d="M119.867,140.248l8.491,0.001l0.252-31.99l-8.522,0.003L119.867,140.248z M130.676,144.882h-0.02
	l-13.121-0.001c-0.618,0.001-1.208-0.247-1.644-0.684c-0.434-0.438-0.676-1.031-0.673-1.648l0.253-36.621
	c0.009-1.273,1.034-2.32,2.317-2.3l13.157-0.002c0.617-0.001,1.21,0.247,1.644,0.685c0.436,0.439,0.676,1.032,0.672,1.65
	l-0.289,36.623C132.963,143.85,131.938,144.871,130.676,144.882"/>
<path fill="#30B2D0" d="M82.847,86.411l-0.009,16.31l14.124-8.126L82.847,86.411z M80.538,109.044
	c-0.407,0.004-0.815-0.099-1.181-0.312c-0.717-0.414-1.155-1.181-1.156-2.008l0.016-24.337c0-0.827,0.443-1.592,1.161-2.005
	c0.718-0.411,1.603-0.41,2.317,0.005l21.059,12.211c0.716,0.414,1.157,1.179,1.156,2.007c-0.002,0.826-0.444,1.591-1.162,2.004
	l-21.075,12.125C81.322,108.938,80.929,109.041,80.538,109.044"/>
<path fill="#30B2D0" d="M150.045,140.294l18.182-0.05l-8.951-19.574L150.045,140.294z M171.848,144.866h-0.014l-25.438,0.069
	c-0.794,0.004-1.535-0.402-1.961-1.072c-0.427-0.668-0.48-1.512-0.142-2.229l12.918-27.454c0.384-0.814,1.189-1.307,2.11-1.33
	c0.9,0.006,1.717,0.532,2.093,1.354l12.521,27.384c0.327,0.716,0.269,1.549-0.158,2.213
	C173.355,144.457,172.631,144.859,171.848,144.866"/>
<path fill="#30B2D0" d="M130.176,88.95c-0.403,0.004-0.813-0.097-1.186-0.315c-2.995-1.75-3.684-4.251-4.186-6.073
	c-0.467-1.693-0.751-2.541-2.058-3.306c-1.294-0.754-2.17-0.579-3.865-0.143c-1.837,0.475-4.352,1.124-7.36-0.633
	c-2.994-1.725-3.672-4.232-4.168-6.062c-0.456-1.682-0.732-2.522-2.024-3.267c-1.3-0.751-2.17-0.569-3.854-0.137
	c-1.828,0.478-4.331,1.121-7.33-0.604c-3.008-1.733-3.688-4.241-4.184-6.073c-0.453-1.682-0.73-2.522-2.021-3.265
	c-1.107-0.64-1.489-2.055-0.851-3.164c0.639-1.106,2.054-1.491,3.164-0.851c3.008,1.732,3.686,4.24,4.181,6.07
	c0.454,1.682,0.731,2.523,2.024,3.268c1.303,0.754,2.172,0.571,3.854,0.136c1.826-0.479,4.329-1.126,7.33,0.604
	c3.008,1.733,3.686,4.241,4.182,6.071c0.456,1.682,0.732,2.523,2.024,3.267c1.309,0.768,2.183,0.591,3.876,0.152
	c1.837-0.478,4.359-1.122,7.36,0.63c2.992,1.75,3.682,4.248,4.184,6.072c0.467,1.694,0.75,2.54,2.058,3.305
	c1.105,0.646,1.477,2.066,0.833,3.169C131.731,88.534,130.965,88.943,130.176,88.95"/>
<path fill="#30B2D0" d="M492.515,184.239l-372.044,3.247c-1.28,0.012-2.325-1.017-2.336-2.297c-0.012-1.28,1.015-2.326,2.296-2.336
	l369.728-3.227L489.01,48.131l-369.729,3.226c-1.28,0.011-2.325-1.015-2.336-2.296c-0.012-1.28,1.015-2.325,2.296-2.337
	l372.045-3.246c1.28-0.011,2.325,1.016,2.336,2.296l1.188,136.128C494.821,183.184,493.794,184.229,492.515,184.239"/>
<polygon fill="#30B2D0" points="202.917,89.623 209.133,89.569 217.284,112.38 225.033,89.43 231.301,89.375 220.844,117.548 
	213.812,117.609 "/>
<path fill="#30B2D0" d="M254.287,110.096c1.668-1.73,2.487-4.039,2.463-6.928c-0.026-2.887-0.885-5.173-2.584-6.857
	c-1.694-1.684-3.699-2.518-6.008-2.496c-2.31,0.021-4.298,0.871-5.966,2.55c-1.667,1.68-2.488,3.965-2.463,6.851
	c0.025,2.889,0.887,5.2,2.583,6.936c1.698,1.734,3.701,2.592,6.011,2.57C250.632,112.7,252.621,111.825,254.287,110.096
	 M237.681,113.756c-2.573-2.712-3.877-6.201-3.914-10.465c-0.038-4.262,1.199-7.738,3.707-10.427
	c2.506-2.689,5.645-4.051,9.418-4.084c2.208-0.021,4.157,0.466,5.847,1.454c1.689,0.986,3.002,2.293,3.933,3.917l-0.044-4.997
	l5.861-0.052l0.244,28.08l-5.861,0.053l-0.045-5.25c-0.936,1.738-2.232,3.136-3.887,4.186c-1.654,1.053-3.588,1.588-5.795,1.607
	C243.406,117.811,240.251,116.469,237.681,113.756"/>
<rect x="254.27" y="95.343" transform="matrix(-0.0088 -1 1 -0.0088 177.2856 372.2301)" fill="#30B2D0" width="37.714" height="5.812"/>
<path fill="#30B2D0" d="M303.205,88.748l5.81-0.052l0.244,28.08l-5.81,0.052l-0.039-4.435c-1.806,3.244-4.781,4.883-8.927,4.918
	c-3.159,0.028-5.776-0.994-7.85-3.063c-2.074-2.072-3.127-4.994-3.16-8.767l-0.145-16.561l5.758-0.05l0.137,15.692
	c0.021,2.518,0.668,4.438,1.938,5.77c1.268,1.333,2.99,1.986,5.163,1.968c2.175-0.021,3.895-0.702,5.155-2.058
	c1.263-1.354,1.883-3.286,1.861-5.803L303.205,88.748z"/>
<path fill="#30B2D0" d="M334.091,94.977c-1.507-1.362-3.328-2.035-5.472-2.017c-2.142,0.02-3.927,0.722-5.356,2.11
	c-1.435,1.388-2.24,3.238-2.424,5.55l15.594-0.136C336.379,98.174,335.599,96.336,334.091,94.977 M328.728,117.064
	c-4.076,0.037-7.398-1.262-9.972-3.891c-2.569-2.626-3.874-6.133-3.912-10.515s1.22-7.901,3.779-10.556
	c2.56-2.656,5.887-4.002,9.979-4.037c4.092-0.036,7.424,1.202,9.996,3.708c2.568,2.51,3.871,5.803,3.906,9.878
	c0.01,0.986-0.052,1.902-0.18,2.756l-21.503,0.188c0.153,2.344,0.961,4.194,2.417,5.559c1.455,1.365,3.271,2.037,5.443,2.018
	c3.16-0.025,5.375-1.354,6.645-3.982l6.266-0.055c-0.824,2.592-2.353,4.721-4.58,6.387
	C334.784,116.189,332.022,117.036,328.728,117.064"/>
<path fill="#30B2D0" d="M208.754,162.781c-2.572-2.627-3.877-6.124-3.915-10.489c-0.038-4.364,1.214-7.883,3.756-10.558
	c2.542-2.672,5.833-4.024,9.878-4.061c3.395-0.029,6.214,0.752,8.454,2.348c2.24,1.596,3.762,3.883,4.571,6.864l-6.269,0.056
	c-1.079-2.945-3.318-4.403-6.713-4.375c-2.38,0.021-4.266,0.877-5.661,2.572c-1.394,1.692-2.079,4.051-2.053,7.075
	c0.026,3.024,0.753,5.379,2.177,7.063c1.424,1.688,3.324,2.521,5.704,2.5c3.364-0.028,5.575-1.525,6.637-4.491l6.268-0.056
	c-0.79,2.859-2.299,5.143-4.528,6.844c-2.227,1.701-5.004,2.566-8.334,2.597C214.65,166.708,211.324,165.411,208.754,162.781"/>
<path fill="#30B2D0" d="M255.657,158.906c1.685-1.711,2.511-4.08,2.484-7.104c-0.025-3.024-0.871-5.368-2.533-7.036
	s-3.664-2.49-6.008-2.468c-2.347,0.019-4.31,0.876-5.892,2.571c-1.583,1.695-2.358,4.062-2.332,7.104
	c0.027,3.043,0.828,5.396,2.406,7.063c1.575,1.667,3.528,2.491,5.854,2.472C251.967,161.488,253.974,160.622,255.657,158.906
	 M249.683,166.4c-4.095,0.037-7.477-1.269-10.15-3.912c-2.672-2.645-4.028-6.133-4.066-10.465c-0.038-4.332,1.3-7.84,4.012-10.53
	s6.104-4.056,10.183-4.091c4.076-0.036,7.492,1.271,10.252,3.912c2.756,2.643,4.154,6.121,4.193,10.435
	c0.037,4.315-1.332,7.828-4.114,10.535C257.212,164.992,253.774,166.365,249.683,166.4"/>
<rect x="253.856" y="143.985" transform="matrix(-0.0087 -1 1 -0.0087 128.2001 420.8707)" fill="#30B2D0" width="37.713" height="5.812"/>
<rect x="267.307" y="143.869" transform="matrix(-0.0087 -1 1 -0.0087 141.8855 434.2042)" fill="#30B2D0" width="37.713" height="5.811"/>
<path fill="#30B2D0" d="M314.078,143.796c-1.509-1.36-3.33-2.032-5.472-2.015c-2.14,0.02-3.926,0.722-5.357,2.109
	c-1.432,1.389-2.238,3.237-2.421,5.551l15.592-0.137C316.366,146.995,315.585,145.157,314.078,143.796 M308.717,165.887
	c-4.075,0.035-7.401-1.262-9.972-3.891c-2.572-2.626-3.877-6.133-3.915-10.514c-0.038-4.383,1.223-7.902,3.78-10.558
	c2.561-2.655,5.886-4.003,9.979-4.036c4.095-0.037,7.425,1.2,9.995,3.709c2.571,2.508,3.873,5.801,3.909,9.877
	c0.009,0.986-0.052,1.902-0.181,2.756l-21.506,0.188c0.156,2.343,0.963,4.193,2.42,5.559c1.455,1.363,3.271,2.037,5.444,2.018
	c3.16-0.026,5.372-1.354,6.642-3.982l6.269-0.055c-0.828,2.59-2.354,4.72-4.581,6.386
	C314.772,165.011,312.01,165.857,308.717,165.887"/>
<path fill="#30B2D0" d="M330.187,161.723c-2.57-2.627-3.875-6.125-3.912-10.49c-0.039-4.362,1.213-7.883,3.754-10.557
	c2.541-2.671,5.835-4.025,9.877-4.061c3.396-0.03,6.216,0.753,8.455,2.347c2.238,1.595,3.763,3.883,4.568,6.866l-6.266,0.055
	c-1.08-2.947-3.319-4.404-6.717-4.375c-2.377,0.021-4.264,0.876-5.66,2.571c-1.395,1.692-2.077,4.052-2.051,7.075
	c0.024,3.025,0.75,5.381,2.175,7.063c1.426,1.69,3.327,2.521,5.704,2.5c3.363-0.028,5.576-1.524,6.639-4.491l6.268-0.055
	c-0.791,2.859-2.301,5.143-4.526,6.842c-2.228,1.702-5.007,2.568-8.336,2.598C336.08,165.648,332.757,164.352,330.187,161.723"/>
<path fill="#30B2D0" d="M372.308,141.529l-6.826,0.062l0.136,15.542c0.01,1.055,0.261,1.809,0.758,2.26
	c0.496,0.455,1.338,0.678,2.526,0.668l3.567-0.031l0.044,4.843l-4.587,0.039c-5.401,0.048-8.125-2.528-8.17-7.728l-0.137-15.541
	l-3.312,0.028l-0.041-4.739l3.312-0.029l-0.062-6.981l5.861-0.052l0.061,6.982l6.828-0.06L372.308,141.529z"/>
<path fill="#30B2D0" d="M377.862,164.824l-0.243-28.079l5.808-0.052l0.245,28.08L377.862,164.824z M384.177,129.247
	c0.01,1.052-0.338,1.938-1.047,2.657c-0.706,0.722-1.579,1.085-2.615,1.094c-1.035,0.009-1.914-0.338-2.633-1.047
	c-0.719-0.706-1.084-1.588-1.093-2.641c-0.011-1.055,0.341-1.938,1.047-2.66c0.706-0.717,1.579-1.084,2.614-1.092
	c1.035-0.011,1.915,0.34,2.634,1.047C383.806,127.314,384.168,128.193,384.177,129.247"/>
<polygon fill="#30B2D0" points="387.759,136.656 393.976,136.604 402.124,159.413 409.875,136.464 416.143,136.408 405.686,164.581 
	398.653,164.643 "/>
<path fill="#30B2D0" d="M437.856,142.716c-1.508-1.36-3.33-2.032-5.473-2.015c-2.14,0.02-3.925,0.722-5.355,2.109
	c-1.435,1.389-2.24,3.237-2.425,5.551l15.595-0.137C440.145,145.915,439.363,144.077,437.856,142.716 M432.494,164.807
	c-4.076,0.035-7.4-1.262-9.973-3.891c-2.569-2.626-3.874-6.133-3.913-10.516c-0.038-4.381,1.222-7.9,3.78-10.557
	c2.559-2.654,5.887-4.002,9.98-4.035c4.092-0.037,7.423,1.2,9.994,3.709c2.568,2.508,3.871,5.801,3.906,9.877
	c0.01,0.986-0.051,1.902-0.179,2.756l-21.503,0.188c0.153,2.344,0.961,4.194,2.417,5.559c1.455,1.363,3.271,2.037,5.444,2.018
	c3.159-0.027,5.375-1.354,6.644-3.982l6.266-0.055c-0.824,2.59-2.353,4.719-4.582,6.385
	C438.551,163.932,435.79,164.777,432.494,164.807"/>
<path fill="#30B2D0" d="M9.591,3.286c1.767,0,3.171,0.441,4.213,1.325c1.041,0.883,1.562,2.074,1.562,3.574
	c0,1.551-0.521,2.746-1.562,3.588c-1.042,0.841-2.446,1.263-4.213,1.263l-0.25,0.149H5.516v6.601h-2.65v-16.5H9.591z M9.391,10.961
	c1.083,0,1.887-0.222,2.413-0.662c0.525-0.441,0.787-1.121,0.787-2.038c0-0.899-0.262-1.575-0.787-2.024
	c-0.526-0.45-1.33-0.676-2.413-0.676H5.516v5.4H9.391z M10.966,11.511l5.375,8.275h-3.075l-4.6-7.226L10.966,11.511z"/>
<path fill="#30B2D0" d="M24.442,20.036c-1.25,0-2.35-0.259-3.3-0.775c-0.95-0.517-1.688-1.263-2.213-2.237
	c-0.525-0.975-0.787-2.138-0.787-3.487c0-1.351,0.262-2.513,0.787-3.487c0.525-0.976,1.254-1.721,2.188-2.238
	c0.933-0.516,1.991-0.774,3.175-0.774c1.216,0,2.25,0.25,3.1,0.75s1.5,1.184,1.95,2.05c0.45,0.867,0.675,1.85,0.675,2.95
	c0,0.3-0.008,0.583-0.026,0.85c-0.015,0.267-0.041,0.5-0.074,0.7h-10.05v-2.05h8.875l-1.325,0.399c0-1.133-0.284-2.004-0.85-2.612
	C26,9.465,25.225,9.161,24.242,9.161c-0.717,0-1.342,0.167-1.875,0.5c-0.534,0.333-0.942,0.829-1.225,1.487
	c-0.284,0.658-0.425,1.463-0.425,2.412c0,0.934,0.15,1.726,0.45,2.375c0.3,0.65,0.725,1.143,1.275,1.476
	c0.55,0.333,1.2,0.5,1.95,0.5c0.833,0,1.508-0.158,2.025-0.476c0.516-0.316,0.925-0.758,1.225-1.324l2.125,1
	c-0.3,0.6-0.704,1.121-1.213,1.562c-0.508,0.441-1.112,0.779-1.812,1.012C26.042,19.919,25.275,20.036,24.442,20.036"/>
<path fill="#30B2D0" d="M40.616,11.761c0-0.833-0.229-1.479-0.687-1.938c-0.459-0.459-1.087-0.688-1.888-0.688
	c-0.75,0-1.392,0.175-1.925,0.525c-0.533,0.35-0.925,0.917-1.175,1.7l-2.25-0.95c0.317-1.017,0.938-1.833,1.863-2.45
	c0.924-0.616,2.121-0.925,3.587-0.925c1,0,1.883,0.162,2.65,0.487c0.766,0.325,1.371,0.812,1.812,1.463
	c0.442,0.649,0.663,1.483,0.663,2.5v5.574c0,0.617,0.308,0.926,0.925,0.926c0.3,0,0.592-0.042,0.875-0.125l-0.15,1.85
	c-0.383,0.184-0.866,0.275-1.449,0.275c-0.535,0-1.013-0.097-1.438-0.289c-0.426-0.19-0.759-0.482-1-0.875
	c-0.242-0.391-0.363-0.878-0.363-1.461v-0.176l0.551-0.024c-0.151,0.649-0.459,1.188-0.926,1.612s-1.008,0.742-1.625,0.95
	c-0.616,0.208-1.241,0.312-1.875,0.312c-0.783,0-1.487-0.125-2.112-0.375s-1.117-0.63-1.475-1.138
	c-0.359-0.508-0.538-1.138-0.538-1.888c0-0.933,0.304-1.7,0.913-2.3c0.608-0.6,1.471-1.008,2.587-1.225l4.85-0.95l-0.025,1.875
	l-3.524,0.725c-0.701,0.134-1.226,0.325-1.576,0.575s-0.525,0.617-0.525,1.1c0,0.467,0.179,0.838,0.538,1.113
	c0.358,0.273,0.837,0.412,1.438,0.412c0.416,0,0.82-0.05,1.211-0.15c0.392-0.1,0.747-0.262,1.063-0.488
	c0.316-0.224,0.563-0.516,0.737-0.875c0.176-0.357,0.263-0.786,0.263-1.286V11.761z"/>
<path fill="#30B2D0" d="M50.241,1.661v14.625c0,0.616,0.108,1.042,0.325,1.274c0.217,0.234,0.575,0.351,1.075,0.351
	c0.3,0,0.554-0.021,0.763-0.063c0.208-0.041,0.471-0.12,0.787-0.236l-0.3,2c-0.284,0.133-0.608,0.236-0.975,0.312
	c-0.366,0.074-0.734,0.112-1.1,0.112c-1.117,0-1.937-0.288-2.463-0.862c-0.524-0.576-0.787-1.463-0.787-2.663V1.661H50.241z"/>
<path fill="#30B2D0" d="M56.791,5.186c-0.583,0-1.029-0.146-1.337-0.438c-0.308-0.291-0.463-0.703-0.463-1.237
	c0-0.533,0.155-0.941,0.463-1.225c0.308-0.284,0.754-0.425,1.337-0.425c0.566,0,1.004,0.142,1.313,0.425
	c0.308,0.283,0.462,0.691,0.462,1.225c0,0.534-0.154,0.946-0.462,1.237C57.795,5.04,57.357,5.186,56.791,5.186 M58.116,19.786
	h-2.675v-12.5h2.675V19.786z"/>
<polygon fill="#30B2D0" points="61.491,19.786 61.491,17.936 67.541,10.886 69.065,9.336 66.89,9.386 61.541,9.386 61.541,7.286 
	72.015,7.286 72.015,9.136 65.966,16.186 64.466,17.736 66.841,17.686 72.241,17.686 72.241,19.786 "/>
<path fill="#30B2D0" d="M80.841,20.036c-1.25,0-2.351-0.259-3.3-0.775c-0.95-0.517-1.687-1.263-2.213-2.237
	c-0.525-0.975-0.787-2.138-0.787-3.487c0-1.351,0.262-2.513,0.787-3.487c0.526-0.976,1.254-1.721,2.188-2.238
	c0.933-0.516,1.991-0.774,3.175-0.774c1.216,0,2.25,0.25,3.1,0.75s1.5,1.184,1.949,2.05c0.451,0.867,0.676,1.85,0.676,2.95
	c0,0.3-0.009,0.583-0.025,0.85c-0.017,0.267-0.042,0.5-0.075,0.7h-10.05v-2.05h8.875l-1.325,0.399c0-1.133-0.284-2.004-0.85-2.612
	c-0.567-0.608-1.342-0.912-2.325-0.912c-0.717,0-1.342,0.167-1.875,0.5c-0.533,0.333-0.942,0.829-1.225,1.487
	c-0.284,0.658-0.426,1.463-0.426,2.412c0,0.934,0.151,1.726,0.451,2.375c0.299,0.65,0.725,1.143,1.275,1.476
	c0.55,0.333,1.2,0.5,1.95,0.5c0.833,0,1.508-0.158,2.025-0.476c0.516-0.316,0.924-0.758,1.225-1.324l2.125,1
	c-0.301,0.6-0.705,1.121-1.213,1.562c-0.508,0.441-1.112,0.779-1.812,1.012C82.441,19.919,81.674,20.036,80.841,20.036"/>
<path fill="#30B2D0" d="M94.59,20.036c-1.033,0-1.971-0.259-2.813-0.775c-0.841-0.517-1.504-1.258-1.987-2.225
	c-0.483-0.967-0.726-2.125-0.726-3.476c0-1.399,0.259-2.583,0.776-3.55c0.516-0.966,1.208-1.704,2.075-2.212
	c0.866-0.509,1.816-0.763,2.85-0.763c1.066,0,1.966,0.292,2.7,0.875c0.733,0.583,1.224,1.342,1.474,2.274l-0.299,0.275v-8.8h2.674
	v18.125h-2.375l-0.199-3.4l0.35,0.025c-0.117,0.75-0.392,1.396-0.825,1.938c-0.434,0.542-0.971,0.958-1.613,1.25
	C96.011,19.89,95.323,20.036,94.59,20.036 M95.165,17.886c0.716,0,1.333-0.183,1.85-0.55c0.516-0.366,0.917-0.883,1.2-1.55
	c0.283-0.667,0.425-1.467,0.425-2.4c0-0.866-0.142-1.612-0.425-2.237c-0.283-0.625-0.68-1.104-1.188-1.438
	c-0.508-0.333-1.095-0.5-1.762-0.5c-1.117,0-1.984,0.384-2.6,1.15c-0.617,0.767-0.925,1.824-0.925,3.175c0,1.35,0.3,2.412,0.9,3.188
	C93.24,17.498,94.081,17.886,95.165,17.886"/>
<path fill="#30B2D0" d="M121.141,9.386h-9.375V7.285h9.375V9.386z M116.84,3.611v12.425c0,0.616,0.163,1.066,0.488,1.35
	c0.324,0.284,0.762,0.425,1.313,0.425c0.449,0,0.841-0.07,1.175-0.212c0.333-0.142,0.641-0.338,0.924-0.588l0.6,1.95
	c-0.383,0.334-0.854,0.596-1.412,0.787c-0.559,0.191-1.18,0.288-1.862,0.288c-0.717,0-1.375-0.117-1.976-0.351
	c-0.6-0.232-1.066-0.612-1.399-1.137c-0.334-0.525-0.509-1.213-0.526-2.062V4.361L116.84,3.611z"/>
<path fill="#30B2D0" d="M123.89,19.786V1.661h2.675v7.625c0.416-0.783,0.978-1.354,1.687-1.713c0.708-0.358,1.496-0.537,2.363-0.537
	c0.883,0,1.678,0.171,2.387,0.513c0.708,0.341,1.271,0.854,1.688,1.537c0.416,0.684,0.625,1.55,0.625,2.6v8.101h-2.675v-7.25
	c0-1.233-0.255-2.092-0.763-2.575s-1.146-0.725-1.912-0.725c-0.534,0-1.062,0.129-1.588,0.387c-0.525,0.259-0.959,0.676-1.299,1.25
	c-0.342,0.575-0.513,1.347-0.513,2.312v6.601L123.89,19.786L123.89,19.786z"/>
<path fill="#30B2D0" d="M139.364,19.786v-12.5h2.274l0.25,2.25c0.334-0.816,0.83-1.438,1.489-1.862
	c0.658-0.426,1.47-0.638,2.437-0.638c0.25,0,0.5,0.021,0.75,0.062c0.25,0.042,0.458,0.105,0.625,0.188l-0.375,2.35
	c-0.183-0.066-0.388-0.121-0.613-0.163c-0.225-0.041-0.529-0.062-0.912-0.062c-0.517,0-1.026,0.138-1.526,0.412
	c-0.5,0.274-0.912,0.688-1.237,1.237c-0.325,0.551-0.487,1.25-0.487,2.101v6.625H139.364z"/>
<path fill="#30B2D0" d="M154.813,7.036c1.217,0,2.291,0.259,3.225,0.774c0.933,0.518,1.663,1.263,2.187,2.238
	c0.525,0.975,0.788,2.137,0.788,3.487c0,1.35-0.263,2.513-0.788,3.487c-0.524,0.975-1.254,1.721-2.187,2.237
	c-0.934,0.517-2.008,0.775-3.225,0.775s-2.292-0.259-3.225-0.775c-0.933-0.516-1.667-1.263-2.2-2.237
	c-0.534-0.975-0.8-2.138-0.8-3.487c0-1.351,0.266-2.513,0.8-3.487c0.533-0.976,1.267-1.721,2.2-2.238
	C152.521,7.295,153.597,7.036,154.813,7.036 M154.813,9.136c-0.75,0-1.388,0.171-1.912,0.513c-0.526,0.341-0.93,0.838-1.213,1.487
	c-0.283,0.65-0.425,1.45-0.425,2.4c0,0.934,0.142,1.729,0.425,2.388c0.283,0.659,0.687,1.158,1.213,1.5
	c0.524,0.342,1.162,0.512,1.912,0.512s1.383-0.17,1.9-0.512c0.516-0.342,0.916-0.842,1.2-1.5c0.283-0.658,0.425-1.454,0.425-2.388
	c0-0.95-0.142-1.75-0.425-2.4c-0.284-0.649-0.684-1.146-1.2-1.487C156.196,9.307,155.563,9.136,154.813,9.136"/>
<path fill="#30B2D0" d="M168.839,20.036c-0.817,0-1.571-0.15-2.263-0.45c-0.692-0.3-1.246-0.783-1.663-1.45
	c-0.416-0.666-0.625-1.533-0.625-2.6v-8.25h2.676v7.575c0,1.133,0.241,1.912,0.725,2.337c0.483,0.425,1.158,0.638,2.025,0.638
	c0.416,0,0.82-0.071,1.212-0.213c0.392-0.141,0.746-0.366,1.062-0.675c0.317-0.309,0.563-0.704,0.738-1.188
	c0.175-0.483,0.262-1.05,0.262-1.7V7.286h2.675v12.5h-2.349l-0.125-2.025c-0.434,0.784-1.017,1.358-1.75,1.726
	C170.705,19.853,169.839,20.036,168.839,20.036"/>
<path fill="#30B2D0" d="M186.889,17.836c1.266,0,2.25,0.279,2.95,0.838c0.7,0.559,1.05,1.328,1.05,2.312
	c0,0.866-0.276,1.611-0.825,2.236c-0.55,0.625-1.296,1.104-2.238,1.438c-0.941,0.333-2.021,0.5-3.237,0.5
	c-2.05,0-3.567-0.317-4.55-0.95c-0.984-0.634-1.475-1.425-1.475-2.375c0-0.667,0.237-1.25,0.712-1.75s1.279-0.783,2.413-0.85
	l-0.15,0.399c-0.7-0.149-1.263-0.421-1.687-0.812c-0.426-0.392-0.638-0.945-0.638-1.662c0-0.717,0.274-1.325,0.825-1.825
	c0.55-0.5,1.324-0.791,2.324-0.875l1.401,0.675h-0.3c-0.767,0.067-1.309,0.242-1.625,0.525c-0.317,0.283-0.476,0.6-0.476,0.95
	c0,0.416,0.155,0.725,0.463,0.925c0.309,0.2,0.746,0.3,1.313,0.3L186.889,17.836L186.889,17.836z M184.488,7.036
	c1.101,0,2.055,0.175,2.864,0.524c0.807,0.351,1.432,0.842,1.875,1.476c0.441,0.634,0.662,1.375,0.662,2.225
	c0,0.851-0.221,1.592-0.662,2.226c-0.443,0.633-1.068,1.125-1.875,1.475c-0.809,0.35-1.763,0.525-2.864,0.525
	c-1.733,0-3.062-0.388-3.987-1.163c-0.925-0.774-1.388-1.796-1.388-3.062c0-0.85,0.226-1.591,0.676-2.225
	c0.449-0.634,1.078-1.125,1.887-1.476C182.485,7.211,183.422,7.036,184.488,7.036 M184.589,23.161c0.916,0,1.671-0.088,2.263-0.263
	c0.591-0.176,1.033-0.4,1.324-0.676c0.292-0.274,0.437-0.578,0.437-0.912c0-0.383-0.154-0.691-0.462-0.925
	c-0.308-0.234-0.862-0.35-1.663-0.35h-4.024c-0.467,0-0.858,0.12-1.175,0.362c-0.317,0.241-0.475,0.57-0.475,0.987
	c0,0.55,0.333,0.983,1,1.3S183.405,23.161,184.589,23.161 M184.488,8.911c-0.766,0-1.404,0.212-1.912,0.638
	c-0.508,0.424-0.762,0.996-0.762,1.712c0,0.717,0.254,1.292,0.762,1.726c0.508,0.434,1.146,0.649,1.912,0.649
	c0.784,0,1.43-0.216,1.938-0.649c0.509-0.434,0.763-1.009,0.763-1.726c0-0.716-0.254-1.288-0.763-1.712
	C185.918,9.123,185.272,8.911,184.488,8.911 M190.839,4.661l0.425,2.1c-0.05,0-0.1-0.004-0.151-0.013
	c-0.049-0.008-0.099-0.012-0.149-0.012c-0.8,0-1.409,0.171-1.825,0.512c-0.417,0.342-0.625,0.838-0.625,1.488l-1.3-0.601
	c0-0.666,0.142-1.263,0.425-1.788c0.283-0.524,0.687-0.937,1.213-1.236c0.524-0.301,1.12-0.45,1.787-0.45h0.099H190.839z"/>
<path fill="#30B2D0" d="M193.339,19.786V1.661h2.675v7.625c0.416-0.783,0.978-1.354,1.687-1.713
	c0.708-0.358,1.496-0.537,2.363-0.537c0.883,0,1.678,0.171,2.387,0.513c0.708,0.341,1.271,0.854,1.688,1.537
	c0.416,0.684,0.625,1.55,0.625,2.6v8.101h-2.675v-7.25c0-1.233-0.255-2.092-0.763-2.575c-0.508-0.483-1.146-0.725-1.912-0.725
	c-0.534,0-1.062,0.129-1.588,0.387c-0.525,0.259-0.959,0.676-1.299,1.25c-0.342,0.575-0.513,1.347-0.513,2.312v6.601L193.339,19.786
	L193.339,19.786z"/>
</svg>
