<?xml version="1.0" encoding="utf-8"?>
<!-- Generator: Adobe Illustrator 26.2.1, SVG Export Plug-In . SVG Version: 6.00 Build 0)  -->
<svg version="1.1" id="Layer_1" xmlns="http://www.w3.org/2000/svg" xmlns:xlink="http://www.w3.org/1999/xlink" x="0px" y="0px"
	 viewBox="0 0 425.9 148.4" style="enable-background:new 0 0 425.9 148.4;" xml:space="preserve">
<style type="text/css">
	.st0{fill:#231F20;}
	.st1{fill:none;}
	.st2{clip-path:url(#SVGID_00000121972439240852318620000011718672825444379271_);}
	.st3{clip-path:url(#SVGID_00000093147450363448566840000010855325663253823123_);}
	.st4{clip-path:url(#SVGID_00000082361431540560064620000002736853104974444948_);}
</style>
<path class="st0" d="M8.1,90.1l9.5,9.5l9.5-9.5l-9.5-9.5L8.1,90.1z M17.6,105.2c-0.6,0-1.2-0.2-1.7-0.7L3.2,91.7
	c-0.4-0.4-0.7-1-0.7-1.6c0-0.6,0.2-1.2,0.7-1.6L16,75.7c0.9-0.9,2.4-0.9,3.3,0l12.8,12.8c0.9,0.9,0.9,2.4,0,3.3l-12.8,12.8
	C18.8,104.9,18.2,105.2,17.6,105.2"/>
<path class="st0" d="M85.2,43.7C79,43.7,74.1,48.8,74.1,55c0.1,6.2,5.1,11.2,11.3,11.1c6.2-0.1,11.2-5.1,11.1-11.3
	C96.5,48.6,91.4,43.6,85.2,43.7 M85.5,70.7c-8.8,0.1-15.9-7-16-15.7s7-15.9,15.7-16c8.7-0.1,15.9,6.9,16,15.7
	C101.3,63.5,94.2,70.7,85.5,70.7"/>
<path class="st0" d="M52.6,132.7c-8.8,0.1-15.9-7-16-15.7c0.1-1.3,1.2-2.2,2.5-2.2c1.2,0.1,2.1,1,2.2,2.2
	c0.1,6.2,5.1,11.2,11.3,11.1c6.2-0.1,11.2-5.1,11.1-11.3c0-1.3,1-2.3,2.3-2.3c1.3,0,2.3,1,2.3,2.3c0,0,0,0,0,0
	C68.4,125.6,61.4,132.7,52.6,132.7"/>
<path class="st0" d="M48.1,101.2h8.5l0.2-32h-8.5L48.1,101.2z M58.9,105.9H45.8c-0.6,0-1.2-0.2-1.7-0.7c-0.4-0.4-0.7-1-0.7-1.6
	l0.2-36.6c0-1.3,1-2.3,2.3-2.3c0,0,0,0,0,0h13.2c0.6,0,1.2,0.2,1.6,0.7c0.4,0.4,0.7,1,0.7,1.7l-0.3,36.6
	C61.2,104.8,60.2,105.8,58.9,105.9"/>
<path class="st0" d="M11.1,47.4v16.3l14.1-8.1L11.1,47.4z M8.8,70c-1.3,0-2.3-1-2.3-2.3c0,0,0,0,0,0V43.3c0-0.8,0.4-1.6,1.2-2
	c0.7-0.4,1.6-0.4,2.3,0L31,53.5c0.7,0.4,1.1,1.2,1.2,2c0,0.8-0.4,1.6-1.2,2L9.9,69.7C9.6,69.9,9.2,70,8.8,70"/>
<path class="st0" d="M78.3,101.3h18.2l-8.9-19.6L78.3,101.3z M100.1,105.8L100.1,105.8l-25.4,0.1c-1.3,0-2.3-1-2.3-2.3
	c0-0.3,0.1-0.7,0.2-1l12.9-27.5c0.4-0.8,1.2-1.3,2.1-1.3c0.9,0,1.7,0.5,2.1,1.4l12.5,27.4c0.3,0.7,0.3,1.5-0.2,2.2
	C101.7,105.4,100.9,105.8,100.1,105.8"/>
<path class="st0" d="M58.4,49.9c-0.4,0-0.8-0.1-1.2-0.3c-2.2-1.3-3.7-3.5-4.2-6.1c-0.5-1.7-0.8-2.5-2.1-3.3s-2.2-0.6-3.9-0.1
	c-1.8,0.5-4.4,1.1-7.4-0.6c-2.2-1.3-3.7-3.5-4.2-6.1c-0.5-1.7-0.7-2.5-2-3.3s-2.2-0.6-3.9-0.1c-4.4,1.7-9.4-0.6-11.1-5
	c-0.2-0.5-0.4-1.1-0.4-1.7c-0.5-1.7-0.7-2.5-2-3.3c-1.1-0.7-1.3-2.2-0.6-3.2c0.6-0.9,1.9-1.3,2.9-0.8c3,1.7,3.7,4.2,4.2,6.1
	c0.4,1.7,0.7,2.5,2,3.3s2.2,0.6,3.9,0.1c2.4-0.9,5.1-0.7,7.3,0.6c3,1.7,3.7,4.2,4.2,6.1c0.4,1.7,0.7,2.5,2,3.3s2.2,0.6,3.9,0.2
	c4.5-1.7,9.4,0.6,11.1,5.1c0.2,0.5,0.3,1.1,0.4,1.6c0.5,1.7,0.8,2.5,2.1,3.3c1.1,0.6,1.5,2.1,0.8,3.2c0,0,0,0,0,0
	C60,49.5,59.2,49.9,58.4,49.9"/>
<path class="st0" d="M420.8,145.2l-372,3.2c-1.3-0.1-2.2-1.2-2.2-2.5c0.1-1.2,1-2.1,2.2-2.2l369.7-3.2L417.3,9.1L47.5,12.3
	c-1.3-0.1-2.2-1.2-2.2-2.5c0.1-1.2,1-2.1,2.2-2.2l372-3.2c1.3,0,2.3,1,2.3,2.3l1.2,136.1C423.1,144.1,422.1,145.2,420.8,145.2
	C420.8,145.2,420.8,145.2,420.8,145.2"/>
<rect x="-70.7" y="-39" class="st1" width="493.7" height="187.4"/>
<polygon class="st0" points="131.2,50.6 137.4,50.5 145.5,73.3 153.3,50.4 159.5,50.3 149.1,78.5 142.1,78.6 "/>
<g>
	<defs>
		<rect id="SVGID_1_" x="-70.7" y="-39" width="493.7" height="187.4"/>
	</defs>
	<clipPath id="SVGID_00000103956775525196293330000012664169783344150460_">
		<use xlink:href="#SVGID_1_"  style="overflow:visible;"/>
	</clipPath>
	<g style="clip-path:url(#SVGID_00000103956775525196293330000012664169783344150460_);">
		<path class="st0" d="M182.5,71.1c3.3-4,3.3-9.8-0.1-13.8c-3.2-3.3-8.5-3.3-11.8-0.1c-0.1,0.1-0.1,0.1-0.2,0.2
			c-1.7,1.8-2.6,4.3-2.5,6.8c-0.1,2.6,0.8,5.1,2.6,6.9c3.1,3.3,8.3,3.5,11.6,0.4C182.3,71.4,182.4,71.3,182.5,71.1 M165.9,74.8
			c-2.6-2.8-4-6.6-3.9-10.5c-0.2-3.8,1.1-7.6,3.7-10.4c2.4-2.6,5.8-4.1,9.4-4.1c2-0.1,4.1,0.4,5.8,1.5c1.6,0.9,3,2.3,3.9,3.9v-5
			l5.9-0.1l0.2,28.1h-5.9l-0.1-5.2c-0.9,1.7-2.3,3.2-3.9,4.2c-1.7,1.1-3.7,1.6-5.8,1.6C171.8,78.8,168.4,77.4,165.9,74.8"/>
	</g>
</g>
<rect x="198.4" y="40.3" transform="matrix(1 -8.726535e-03 8.726535e-03 1 -0.5089 1.7594)" class="st0" width="5.8" height="37.7"/>
<g>
	<defs>
		<rect id="SVGID_00000065060524063015519990000014426360534224023705_" x="-70.7" y="-39" width="493.7" height="187.4"/>
	</defs>
	<clipPath id="SVGID_00000135671243709185107240000005655519935479563966_">
		<use xlink:href="#SVGID_00000065060524063015519990000014426360534224023705_"  style="overflow:visible;"/>
	</clipPath>
	<g style="clip-path:url(#SVGID_00000135671243709185107240000005655519935479563966_);">
		<path class="st0" d="M231.4,49.7h5.8l0.2,28.1l-5.8,0.1v-4.4c-1.8,3.2-4.8,4.9-8.9,4.9c-2.9,0.1-5.8-1-7.9-3.1
			c-2.1-2.1-3.1-5-3.2-8.8l-0.1-16.6h5.8l0.1,15.7c-0.1,2.1,0.6,4.2,1.9,5.8c1.4,1.4,3.2,2.1,5.2,2c1.9,0.1,3.8-0.7,5.1-2.1
			c1.4-1.6,2-3.7,1.9-5.8L231.4,49.7z"/>
		<path class="st0" d="M262.3,55.9c-1.5-1.4-3.5-2.1-5.5-2c-2-0.1-3.9,0.7-5.4,2.1c-1.5,1.5-2.3,3.5-2.4,5.6l15.6-0.1
			C264.7,59.3,263.9,57.4,262.3,55.9 M257,78c-3.7,0.2-7.4-1.2-10-3.9c-2.6-2.6-3.9-6.1-3.9-10.5c0-4.4,1.2-7.9,3.8-10.6
			c5.1-5.6,13.8-6,19.4-0.9c2.9,2.7,4.5,6.5,4.5,10.4c0,0.9,0,1.8-0.2,2.8L249,65.5c0,2.1,0.9,4.1,2.4,5.6c1.5,1.4,3.4,2.1,5.4,2
			c2.8,0.2,5.5-1.4,6.6-4l6.3-0.1c-0.8,2.6-2.4,4.8-4.6,6.4C262.8,77.1,259.9,78,257,78"/>
		<path class="st0" d="M137,123.8c-2.6-2.6-3.9-6.1-3.9-10.5s1.2-7.9,3.8-10.6c2.6-2.7,6.2-4.2,9.9-4.1c3-0.1,6,0.7,8.4,2.4
			c2.3,1.7,3.9,4.1,4.6,6.9l-6.3,0.1c-1.1-2.9-3.3-4.4-6.7-4.4c-2.2-0.1-4.3,0.9-5.7,2.6c-1.4,1.7-2.1,4.1-2,7.1
			c-0.1,2.5,0.6,5,2.2,7.1c1.4,1.7,3.5,2.6,5.7,2.5c3.4,0,5.6-1.5,6.6-4.5l6.3-0.1c-0.7,2.7-2.3,5.1-4.5,6.8
			c-2.4,1.8-5.3,2.7-8.3,2.6C143.3,127.8,139.6,126.4,137,123.8"/>
		<path class="st0" d="M183.9,119.9c3.3-4.1,3.3-10-0.1-14.1c-1.6-1.6-3.7-2.5-6-2.5c-2.2,0-4.4,0.9-5.9,2.6
			c-1.6,1.7-2.4,4.1-2.3,7.1s0.8,5.4,2.4,7.1c1.5,1.6,3.6,2.5,5.9,2.5C180.2,122.5,182.3,121.5,183.9,119.9 M177.9,127.4
			c-3.8,0.2-7.5-1.3-10.2-3.9c-2.7-2.8-4.2-6.6-4-10.4c-0.4-7.9,5.8-14.6,13.7-15c7.9-0.4,14.6,5.8,15,13.7c0,0.3,0,0.7,0,1
			c0.2,3.9-1.3,7.8-4.1,10.5C185.5,126,181.8,127.4,177.9,127.4"/>
	</g>
</g>
<rect x="198.1" y="89" transform="matrix(1 -8.726535e-03 8.726535e-03 1 -0.9335 1.7578)" class="st0" width="5.8" height="37.7"/>
<rect x="211.5" y="88.9" transform="matrix(1 -8.726535e-03 8.726535e-03 1 -0.9319 1.8752)" class="st0" width="5.8" height="37.7"/>
<g>
	<defs>
		<rect id="SVGID_00000054960202863506369270000009430371520290614165_" x="-70.7" y="-39" width="493.7" height="187.4"/>
	</defs>
	<clipPath id="SVGID_00000011021716232824434660000013691923094979257994_">
		<use xlink:href="#SVGID_00000054960202863506369270000009430371520290614165_"  style="overflow:visible;"/>
	</clipPath>
	<g style="clip-path:url(#SVGID_00000011021716232824434660000013691923094979257994_);">
		<path class="st0" d="M242.3,104.8c-1.5-1.3-3.5-2.1-5.5-2c-2,0-3.9,0.7-5.4,2.1c-1.5,1.5-2.3,3.5-2.4,5.6l15.6-0.1
			C244.7,108.2,243.9,106.2,242.3,104.8 M237,126.9c-3.7,0.2-7.4-1.2-10-3.9c-2.6-2.6-3.9-6.1-3.9-10.5c0-4.4,1.2-7.9,3.8-10.6
			c5.1-5.6,13.8-6,19.4-0.9c2.9,2.7,4.5,6.5,4.5,10.4c0,0.9,0,1.8-0.2,2.8l-21.5,0.2c0.1,2.1,0.9,4.1,2.4,5.6c1.5,1.4,3.4,2.1,5.5,2
			c2.8,0.2,5.5-1.4,6.6-4l6.3-0.1c-0.8,2.6-2.4,4.8-4.6,6.4C242.8,126,239.9,126.9,237,126.9"/>
		<path class="st0" d="M258.4,122.7c-2.6-2.6-3.9-6.1-3.9-10.5s1.2-7.9,3.7-10.6c2.6-2.7,6.2-4.2,9.9-4.1c3-0.1,6,0.7,8.5,2.4
			c2.3,1.7,3.9,4.1,4.6,6.9l-6.3,0.1c-1.1-2.9-3.3-4.4-6.7-4.4c-2.2-0.1-4.3,0.9-5.7,2.6c-2.8,4.3-2.7,9.9,0.1,14.1
			c1.4,1.7,3.5,2.6,5.7,2.5c3.4,0,5.6-1.5,6.6-4.5l6.3-0.1c-0.7,2.7-2.3,5.1-4.5,6.9c-2.4,1.8-5.3,2.7-8.3,2.6
			C264.7,126.8,261,125.4,258.4,122.7"/>
		<path class="st0" d="M300.5,102.5l-6.8,0.1l0.1,15.6c-0.1,0.8,0.2,1.6,0.8,2.3c0.7,0.5,1.6,0.8,2.5,0.7h3.6l0,4.8h-4.6
			c-5.4,0-8.1-2.5-8.2-7.7l-0.1-15.5h-3.3v-4.7h3.3l-0.1-7h5.9l0.1,7l6.8-0.1L300.5,102.5z"/>
		<path class="st0" d="M306.1,125.8l-0.2-28.1l5.8-0.1l0.2,28.1L306.1,125.8z M312.4,90.2c0,1-0.3,2-1,2.7c-1.4,1.5-3.8,1.5-5.2,0
			c-0.7-0.7-1.1-1.7-1.1-2.6c0-2,1.5-3.7,3.6-3.7c0,0,0.1,0,0.1,0c1,0,1.9,0.3,2.6,1C312,88.2,312.4,89.2,312.4,90.2"/>
	</g>
</g>
<polygon class="st0" points="316,97.6 322.2,97.6 330.4,120.4 338.1,97.4 344.4,97.4 333.9,125.5 326.9,125.6 "/>
<path class="st0" d="M366.1,103.7c-1.5-1.3-3.5-2.1-5.5-2c-2,0-3.9,0.7-5.4,2.1c-1.5,1.5-2.3,3.5-2.4,5.6l15.6-0.1
	C368.5,107.1,367.6,105.1,366.1,103.7 M360.7,125.8c-3.7,0.2-7.4-1.2-10-3.9c-2.6-2.6-3.9-6.1-3.9-10.5c0-4.4,1.2-7.9,3.8-10.6
	c5.1-5.6,13.8-6,19.4-0.9c2.9,2.7,4.5,6.5,4.5,10.4c0,0.9-0.1,1.8-0.2,2.8l-21.5,0.2c0,2.1,0.9,4.1,2.4,5.6c1.5,1.4,3.4,2.1,5.4,2
	c2.8,0.2,5.5-1.4,6.6-4h6.3c-0.8,2.6-2.4,4.8-4.6,6.4C366.6,125,363.7,125.9,360.7,125.8"/>
<rect x="-70.7" y="-39" class="st1" width="493.7" height="187.4"/>
</svg>
