<svg id="Layer_1" data-name="Layer 1" xmlns="http://www.w3.org/2000/svg" xmlns:xlink="http://www.w3.org/1999/xlink" viewBox="0 0 493.71 187.45"><defs><style>.cls-1{fill:none;}.cls-2{fill:#231f20;}.cls-3{clip-path:url(#clip-path);}</style><clipPath id="clip-path"><rect class="cls-1" width="493.71" height="187.45"/></clipPath></defs><title>Realized through Value Collective Logo</title><path class="cls-2" d="M78.81,129.06l9.48,9.51,9.51-9.48-9.47-9.51Zm9.49,15.1a2.29,2.29,0,0,1-1.66-.68L73.89,130.69a2.35,2.35,0,0,1-.67-1.64,2.32,2.32,0,0,1,.68-1.64l12.8-12.75a2.32,2.32,0,0,1,3.27,0l12.75,12.8a2.32,2.32,0,0,1,0,3.27L89.92,143.49a2.31,2.31,0,0,1-1.62.67"/><path class="cls-2" d="M155.91,82.67a11.22,11.22,0,1,0,11.32,11.12,11.24,11.24,0,0,0-11.32-11.12m.24,27.07a15.85,15.85,0,1,1,15.71-16,15.86,15.86,0,0,1-15.71,16"/><path class="cls-2" d="M123.28,171.74a15.88,15.88,0,0,1-16-15.72,2.32,2.32,0,0,1,4.63,0,11.22,11.22,0,1,0,22.44-.19,2.32,2.32,0,1,1,4.64,0,15.88,15.88,0,0,1-15.72,16"/><path class="cls-2" d="M118.77,140.21h8.49l.25-32H119Zm10.81,4.64H116.44a2.28,2.28,0,0,1-1.65-.68,2.36,2.36,0,0,1-.67-1.65l.25-36.62a2.3,2.3,0,0,1,2.32-2.3h13.16a2.32,2.32,0,0,1,1.64.68,2.29,2.29,0,0,1,.67,1.65l-.28,36.63a2.33,2.33,0,0,1-2.3,2.3"/><path class="cls-2" d="M81.75,86.37v16.31l14.13-8.12ZM79.44,109a2.32,2.32,0,0,1-2.34-2.32l0-24.34a2.29,2.29,0,0,1,1.16-2,2.34,2.34,0,0,1,2.32,0l21.06,12.21a2.33,2.33,0,0,1,1.15,2,2.29,2.29,0,0,1-1.16,2L80.58,108.7a2.44,2.44,0,0,1-1.14.31"/><path class="cls-2" d="M149,140.26l18.18,0-8.95-19.58Zm21.8,4.57h0l-25.44.07a2.31,2.31,0,0,1-2.1-3.3l12.91-27.46a2.38,2.38,0,0,1,2.11-1.33,2.35,2.35,0,0,1,2.1,1.36l12.52,27.38a2.29,2.29,0,0,1-.16,2.21,2.32,2.32,0,0,1-1.93,1.07"/><path class="cls-2" d="M129.08,88.91a2.26,2.26,0,0,1-1.19-.31,8.9,8.9,0,0,1-4.18-6.08c-.47-1.69-.75-2.54-2.06-3.3s-2.17-.58-3.86-.14c-1.84.47-4.36,1.12-7.36-.64a8.73,8.73,0,0,1-4.17-6.06c-.46-1.68-.73-2.52-2-3.27s-2.17-.56-3.85-.13A8.6,8.6,0,0,1,88.87,62.3c-.46-1.68-.73-2.52-2-3.26a2.32,2.32,0,0,1,2.32-4c3,1.73,3.68,4.24,4.18,6.07.45,1.68.73,2.53,2,3.27s2.17.57,3.86.14a8.81,8.81,0,0,1,7.33.6c3,1.73,3.68,4.24,4.18,6.07.45,1.68.73,2.52,2,3.27s2.19.59,3.88.15a8.64,8.64,0,0,1,11.54,6.7c.47,1.7.75,2.54,2.06,3.31a2.31,2.31,0,0,1,.83,3.17,2.28,2.28,0,0,1-2,1.14"/><path class="cls-2" d="M491.42,184.2l-372,3.25a2.32,2.32,0,0,1,0-4.63l369.73-3.23-1.15-131.5L118.18,51.32a2.32,2.32,0,0,1,0-4.63l372.05-3.25a2.33,2.33,0,0,1,2.34,2.3l1.18,136.13a2.3,2.3,0,0,1-2.29,2.33"/><rect class="cls-1" width="493.71" height="187.45"/><polygon class="cls-2" points="201.82 89.59 208.04 89.53 216.19 112.34 223.94 89.39 230.21 89.34 219.75 117.51 212.72 117.57 201.82 89.59"/><g class="cls-3"><path class="cls-2" d="M253.19,110.06a10.69,10.69,0,0,0-.12-13.79,8.37,8.37,0,0,0-12,.06,9.18,9.18,0,0,0-2.47,6.85,9.61,9.61,0,0,0,2.59,6.93,8.2,8.2,0,0,0,12,0m-16.61,3.66a14.81,14.81,0,0,1-3.91-10.47,14.45,14.45,0,0,1,3.71-10.42,12.51,12.51,0,0,1,9.42-4.09,11.14,11.14,0,0,1,5.84,1.46,10.53,10.53,0,0,1,3.93,3.91l0-5,5.86-.05.25,28.08-5.86,0-.05-5.25a11.09,11.09,0,0,1-3.89,4.18,10.66,10.66,0,0,1-5.79,1.61,12.42,12.42,0,0,1-9.47-4"/></g><rect class="cls-2" x="269.12" y="79.34" width="5.81" height="37.71" transform="translate(-0.85 2.38) rotate(-0.5)"/><g class="cls-3"><path class="cls-2" d="M302.11,88.71l5.81,0,.24,28.08-5.81.05,0-4.43q-2.7,4.86-8.92,4.92a10.54,10.54,0,0,1-7.85-3.07q-3.12-3.1-3.16-8.76l-.15-16.57,5.76,0,.14,15.7a8.15,8.15,0,0,0,1.94,5.77,6.69,6.69,0,0,0,5.16,2,6.76,6.76,0,0,0,5.15-2.05,8.07,8.07,0,0,0,1.87-5.8Z"/><path class="cls-2" d="M333,94.94a7.74,7.74,0,0,0-5.47-2A7.51,7.51,0,0,0,322.17,95a8.31,8.31,0,0,0-2.43,5.55l15.6-.13A7.32,7.32,0,0,0,333,94.94M327.63,117a13.17,13.17,0,0,1-10-3.89q-3.86-3.94-3.91-10.52t3.78-10.55a13.74,13.74,0,0,1,23.88,9.55,17.09,17.09,0,0,1-.18,2.75l-21.5.19a8,8,0,0,0,2.41,5.56,7.64,7.64,0,0,0,5.45,2,6.84,6.84,0,0,0,6.64-4l6.27-.05a12.61,12.61,0,0,1-4.58,6.38,13.65,13.65,0,0,1-8.29,2.55"/><path class="cls-2" d="M207.66,162.75q-3.85-3.94-3.92-10.49t3.76-10.56a13.17,13.17,0,0,1,9.88-4.06,14,14,0,0,1,8.45,2.35,11.91,11.91,0,0,1,4.57,6.86l-6.27.06q-1.62-4.42-6.71-4.38a7,7,0,0,0-5.66,2.57c-1.4,1.7-2.08,4.05-2,7.08a10.75,10.75,0,0,0,2.17,7.06,7,7,0,0,0,5.71,2.5c3.36,0,5.57-1.52,6.63-4.49l6.27-.05A12.53,12.53,0,0,1,226,164a13.52,13.52,0,0,1-8.33,2.6,13.21,13.21,0,0,1-10-3.89"/><path class="cls-2" d="M254.56,158.87a11.19,11.19,0,0,0-.05-14.14,8.05,8.05,0,0,0-6-2.47,7.86,7.86,0,0,0-5.89,2.57c-1.58,1.7-2.35,4.07-2.33,7.11s.83,5.39,2.41,7.06a7.62,7.62,0,0,0,5.85,2.47,8.22,8.22,0,0,0,6-2.6m-6,7.49a13.64,13.64,0,0,1-10.16-3.91A14.25,14.25,0,0,1,234.37,152a14.33,14.33,0,1,1,28.64-.28,13.84,13.84,0,0,1-4.12,10.54,14.32,14.32,0,0,1-10.3,4.11"/></g><rect class="cls-2" x="268.72" y="127.99" width="5.81" height="37.71" transform="translate(-1.27 2.38) rotate(-0.5)"/><rect class="cls-2" x="282.18" y="127.87" width="5.81" height="37.71" transform="translate(-1.27 2.49) rotate(-0.5)"/><g class="cls-3"><path class="cls-2" d="M313,143.76a7.82,7.82,0,0,0-5.47-2,7.53,7.53,0,0,0-5.36,2.11,8.34,8.34,0,0,0-2.42,5.55l15.59-.13a7.28,7.28,0,0,0-2.34-5.51m-5.36,22.09a13.13,13.13,0,0,1-10-3.89q-3.86-3.94-3.92-10.51t3.78-10.56a13.75,13.75,0,0,1,23.89,9.55,17,17,0,0,1-.18,2.75l-21.51.19a8.07,8.07,0,0,0,2.42,5.56,7.58,7.58,0,0,0,5.45,2,6.84,6.84,0,0,0,6.64-4l6.27-.05a12.61,12.61,0,0,1-4.58,6.38,13.67,13.67,0,0,1-8.29,2.55"/><path class="cls-2" d="M329.09,161.69q-3.85-3.94-3.91-10.49t3.75-10.56a13.18,13.18,0,0,1,9.88-4.06,14,14,0,0,1,8.45,2.35,11.86,11.86,0,0,1,4.57,6.86l-6.26.06q-1.62-4.42-6.72-4.38a7,7,0,0,0-5.66,2.57,12.9,12.9,0,0,0,.12,14.14,7,7,0,0,0,5.71,2.5c3.36,0,5.57-1.52,6.64-4.49l6.26-.05A12.57,12.57,0,0,1,347.4,163a13.57,13.57,0,0,1-8.34,2.6,13.21,13.21,0,0,1-10-3.89"/><path class="cls-2" d="M371.21,141.49l-6.83.06.14,15.55a3,3,0,0,0,.76,2.26,3.69,3.69,0,0,0,2.53.66l3.56,0,.05,4.84-4.59,0q-8.1.07-8.17-7.72l-.14-15.54-3.31,0,0-4.73,3.31,0-.06-7,5.86,0,.06,7,6.83-.06Z"/><path class="cls-2" d="M376.77,164.79l-.25-28.08,5.81-.05.25,28.08Zm6.31-35.58a3.59,3.59,0,0,1-1.05,2.66,3.7,3.7,0,0,1-6.34-2.6,3.66,3.66,0,0,1,3.66-3.75,3.57,3.57,0,0,1,2.64,1,3.61,3.61,0,0,1,1.09,2.64"/></g><polygon class="cls-2" points="386.66 136.62 392.88 136.57 401.03 159.38 408.78 136.43 415.05 136.37 404.59 164.54 397.56 164.61 386.66 136.62"/><path class="cls-2" d="M436.76,142.68a7.82,7.82,0,0,0-5.47-2,7.53,7.53,0,0,0-5.36,2.11,8.34,8.34,0,0,0-2.42,5.55l15.59-.13a7.28,7.28,0,0,0-2.34-5.51m-5.36,22.09a13.13,13.13,0,0,1-10-3.89q-3.85-3.94-3.92-10.52t3.78-10.55a13.75,13.75,0,0,1,23.89,9.55,19.64,19.64,0,0,1-.18,2.75l-21.51.19a8,8,0,0,0,2.42,5.56,7.57,7.57,0,0,0,5.44,2,6.86,6.86,0,0,0,6.65-4l6.26,0a12.5,12.5,0,0,1-4.58,6.38,13.64,13.64,0,0,1-8.28,2.55"/><rect class="cls-1" width="493.71" height="187.45"/><path class="cls-2" d="M8.49,3.25a6.33,6.33,0,0,1,4.22,1.32,4.47,4.47,0,0,1,1.56,3.58,4.35,4.35,0,0,1-1.56,3.59A6.53,6.53,0,0,1,8.49,13l-.25.15H4.42v6.6H1.77V3.25ZM8.3,10.92a3.71,3.71,0,0,0,2.41-.66,2.53,2.53,0,0,0,.78-2,2.52,2.52,0,0,0-.78-2A3.65,3.65,0,0,0,8.3,5.52H4.42v5.4Zm1.57.55,5.37,8.28H12.17l-4.6-7.23Z"/><path class="cls-2" d="M23.35,20a6.76,6.76,0,0,1-3.3-.78A5.42,5.42,0,0,1,17.83,17a7.34,7.34,0,0,1-.78-3.49A7.34,7.34,0,0,1,17.83,10,5.56,5.56,0,0,1,20,7.77,6.51,6.51,0,0,1,23.2,7a6,6,0,0,1,3.1.75A5,5,0,0,1,28.25,9.8a6.31,6.31,0,0,1,.67,2.95c0,.3,0,.58,0,.85a6.11,6.11,0,0,1-.07.7h-10V12.25h8.88l-1.33.4A3.68,3.68,0,0,0,25.47,10a3,3,0,0,0-2.32-.92,3.49,3.49,0,0,0-1.88.5,3.19,3.19,0,0,0-1.22,1.49,6,6,0,0,0-.43,2.41,5.65,5.65,0,0,0,.45,2.38,3.25,3.25,0,0,0,1.28,1.47,3.63,3.63,0,0,0,1.95.5,3.8,3.8,0,0,0,2-.47,3.36,3.36,0,0,0,1.23-1.33l2.12,1a5,5,0,0,1-1.21,1.57,5.24,5.24,0,0,1-1.81,1A7.35,7.35,0,0,1,23.35,20Z"/><path class="cls-2" d="M39.52,11.72a2.6,2.6,0,0,0-.69-1.93,2.54,2.54,0,0,0-1.89-.69A3.4,3.4,0,0,0,35,9.62a3.07,3.07,0,0,0-1.17,1.7l-2.25-1a4.46,4.46,0,0,1,1.86-2.45A6.39,6.39,0,0,1,37.05,7a6.58,6.58,0,0,1,2.64.49A4,4,0,0,1,41.51,9a4.36,4.36,0,0,1,.66,2.5V17a.82.82,0,0,0,.93.93,2.87,2.87,0,0,0,.87-.13l-.15,1.85a3.26,3.26,0,0,1-1.45.28,3.53,3.53,0,0,1-1.44-.29,2.23,2.23,0,0,1-1-.87,2.76,2.76,0,0,1-.36-1.47v-.17l.55,0a3.08,3.08,0,0,1-.93,1.62,4.53,4.53,0,0,1-1.62,1,5.79,5.79,0,0,1-1.88.31,5.66,5.66,0,0,1-2.11-.38,3,3,0,0,1-2-3,3.09,3.09,0,0,1,.91-2.3,5,5,0,0,1,2.59-1.23l4.85-1,0,1.88-3.52.72a4.07,4.07,0,0,0-1.57.58,1.25,1.25,0,0,0-.53,1.1,1.31,1.31,0,0,0,.54,1.11,2.26,2.26,0,0,0,1.44.41,4.89,4.89,0,0,0,1.21-.15,3.29,3.29,0,0,0,1.06-.48,2.35,2.35,0,0,0,.74-.88,3,3,0,0,0,.26-1.29Z"/><path class="cls-2" d="M49.14,1.62V16.25a1.85,1.85,0,0,0,.33,1.27,1.4,1.4,0,0,0,1.08.35,4.1,4.1,0,0,0,.76-.06,5,5,0,0,0,.79-.24l-.3,2a4.34,4.34,0,0,1-1,.32,5.86,5.86,0,0,1-1.1.11,3.18,3.18,0,0,1-2.46-.86,3.86,3.86,0,0,1-.79-2.67V1.62Z"/><path class="cls-2" d="M55.69,5.15a1.87,1.87,0,0,1-1.33-.44,1.61,1.61,0,0,1-.47-1.24,1.57,1.57,0,0,1,.47-1.22,2.26,2.26,0,0,1,2.65,0,1.56,1.56,0,0,1,.46,1.22A1.61,1.61,0,0,1,57,4.71,1.86,1.86,0,0,1,55.69,5.15ZM57,7.25v12.5H54.35V7.25Z"/><path class="cls-2" d="M60.39,19.75V17.9l6-7L68,9.3l-2.18,0H60.44V7.25H70.92V9.1l-6,7-1.5,1.55,2.37-.05h5.4v2.1Z"/><path class="cls-2" d="M79.74,20a6.76,6.76,0,0,1-3.3-.78A5.4,5.4,0,0,1,74.23,17a7.34,7.34,0,0,1-.79-3.49A7.34,7.34,0,0,1,74.23,10a5.56,5.56,0,0,1,2.19-2.24A6.5,6.5,0,0,1,79.59,7a6,6,0,0,1,3.1.75,5,5,0,0,1,2,2.05,6.32,6.32,0,0,1,.68,2.95c0,.3,0,.58,0,.85a6.11,6.11,0,0,1-.07.7h-10V12.25H84l-1.32.4A3.68,3.68,0,0,0,81.87,10a3,3,0,0,0-2.33-.92,3.48,3.48,0,0,0-1.87.5,3.27,3.27,0,0,0-1.23,1.49A6.16,6.16,0,0,0,76,13.52a5.65,5.65,0,0,0,.45,2.38,3.23,3.23,0,0,0,1.27,1.47,3.63,3.63,0,0,0,2,.5,3.81,3.81,0,0,0,2-.47,3.34,3.34,0,0,0,1.22-1.33l2.13,1a5.16,5.16,0,0,1-1.21,1.57,5.28,5.28,0,0,1-1.82,1A7.3,7.3,0,0,1,79.74,20Z"/><path class="cls-2" d="M93.49,20a5.24,5.24,0,0,1-2.81-.78,5.32,5.32,0,0,1-2-2.22A7.77,7.77,0,0,1,88,13.52,7.54,7.54,0,0,1,88.74,10a5.46,5.46,0,0,1,4.93-3,4.22,4.22,0,0,1,2.7.87,4.28,4.28,0,0,1,1.47,2.28l-.3.27V1.62h2.68V19.75H97.84l-.2-3.4.35,0a4,4,0,0,1-.82,1.94,4.39,4.39,0,0,1-1.61,1.25A5,5,0,0,1,93.49,20Zm.58-2.15a3.11,3.11,0,0,0,1.85-.55,3.57,3.57,0,0,0,1.2-1.55,6.21,6.21,0,0,0,.42-2.4,5.46,5.46,0,0,0-.42-2.24,3.33,3.33,0,0,0-1.19-1.44,3.45,3.45,0,0,0-4.36.65,4.94,4.94,0,0,0-.93,3.18,5.1,5.1,0,0,0,.9,3.19A3,3,0,0,0,94.07,17.85Z"/><path class="cls-2" d="M120,7.25v2.1h-9.37V7.25Zm-4.3-3.68V16a1.71,1.71,0,0,0,.49,1.35,1.94,1.94,0,0,0,1.31.42,3,3,0,0,0,1.18-.21,3.35,3.35,0,0,0,.92-.59l.6,2a4,4,0,0,1-1.41.79A5.76,5.76,0,0,1,117,20a5.49,5.49,0,0,1-2-.35,2.81,2.81,0,0,1-1.4-1.14,4,4,0,0,1-.52-2.06V4.32Z"/><path class="cls-2" d="M122.79,19.75V1.62h2.68V9.25a3.88,3.88,0,0,1,1.69-1.71A5.09,5.09,0,0,1,129.52,7a5.47,5.47,0,0,1,2.39.51,4,4,0,0,1,1.68,1.54,4.88,4.88,0,0,1,.63,2.6v8.1h-2.68V12.5a3.5,3.5,0,0,0-.76-2.58,2.68,2.68,0,0,0-1.91-.72,3.55,3.55,0,0,0-1.59.39,3.11,3.11,0,0,0-1.3,1.25,4.49,4.49,0,0,0-.51,2.31v6.6Z"/><path class="cls-2" d="M138.27,19.75V7.25h2.27l.25,2.25a3.88,3.88,0,0,1,1.49-1.86A4.37,4.37,0,0,1,144.72,7a4.74,4.74,0,0,1,.75.06,2.17,2.17,0,0,1,.62.19l-.37,2.35a3.5,3.5,0,0,0-.62-.16,5.16,5.16,0,0,0-.91-.07,3.09,3.09,0,0,0-1.52.42A3.25,3.25,0,0,0,141.43,11a4,4,0,0,0-.49,2.1v6.63Z"/><path class="cls-2" d="M153.72,7a6.61,6.61,0,0,1,3.22.77A5.5,5.5,0,0,1,159.13,10a7.34,7.34,0,0,1,.79,3.49,7.34,7.34,0,0,1-.79,3.49,5.41,5.41,0,0,1-2.19,2.23,7.06,7.06,0,0,1-6.45,0,5.56,5.56,0,0,1-2.2-2.23,7.23,7.23,0,0,1-.8-3.49,7.23,7.23,0,0,1,.8-3.49,5.65,5.65,0,0,1,2.2-2.24A6.65,6.65,0,0,1,153.72,7Zm0,2.1a3.48,3.48,0,0,0-1.92.51,3.35,3.35,0,0,0-1.21,1.49,6.07,6.07,0,0,0-.42,2.4,6.12,6.12,0,0,0,.42,2.39,3.32,3.32,0,0,0,1.21,1.5,3.48,3.48,0,0,0,1.92.51,3.12,3.12,0,0,0,3.1-2,6.12,6.12,0,0,0,.42-2.39,6.07,6.07,0,0,0-.42-2.4,3.13,3.13,0,0,0-3.1-2Z"/><path class="cls-2" d="M167.74,20a5.63,5.63,0,0,1-2.26-.45,3.58,3.58,0,0,1-1.66-1.45,4.81,4.81,0,0,1-.63-2.6V7.25h2.68v7.57a3,3,0,0,0,.72,2.34,3,3,0,0,0,2,.64,3.58,3.58,0,0,0,1.21-.21,2.87,2.87,0,0,0,1.06-.68,3.09,3.09,0,0,0,.74-1.19,5.11,5.11,0,0,0,.26-1.7V7.25h2.68v12.5h-2.35l-.13-2a4,4,0,0,1-1.75,1.73A5.7,5.7,0,0,1,167.74,20Z"/><path class="cls-2" d="M185.79,17.8a4.6,4.6,0,0,1,3,.84,2.8,2.8,0,0,1,1,2.31,3.28,3.28,0,0,1-.82,2.24,5.26,5.26,0,0,1-2.24,1.43,9.51,9.51,0,0,1-3.24.5,8.52,8.52,0,0,1-4.55-.95,2.77,2.77,0,0,1-1.47-2.37,2.43,2.43,0,0,1,.71-1.75,3.54,3.54,0,0,1,2.41-.85l-.15.4a3.48,3.48,0,0,1-1.68-.81,2.14,2.14,0,0,1-.64-1.67,2.37,2.37,0,0,1,.82-1.82,3.89,3.89,0,0,1,2.33-.88l1.4.68h-.3a2.89,2.89,0,0,0-1.63.52,1.28,1.28,0,0,0-.47,1,1,1,0,0,0,.46.93,2.42,2.42,0,0,0,1.31.3ZM183.39,7a7.21,7.21,0,0,1,2.87.52A4.36,4.36,0,0,1,188.13,9a3.78,3.78,0,0,1,.66,2.22,3.81,3.81,0,0,1-.66,2.23,4.34,4.34,0,0,1-1.87,1.47,7.21,7.21,0,0,1-2.87.53,6.1,6.1,0,0,1-4-1.16A3.83,3.83,0,0,1,178,11.22,3.72,3.72,0,0,1,178.69,9a4.42,4.42,0,0,1,1.89-1.48A7,7,0,0,1,183.39,7Zm.1,16.12a8,8,0,0,0,2.27-.26,3.25,3.25,0,0,0,1.32-.67,1.26,1.26,0,0,0,.44-.92,1.1,1.1,0,0,0-.47-.92,2.88,2.88,0,0,0-1.66-.35h-4a1.9,1.9,0,0,0-1.18.36,1.19,1.19,0,0,0-.47,1,1.45,1.45,0,0,0,1,1.3A6.52,6.52,0,0,0,183.49,23.12Zm-.1-14.25a2.92,2.92,0,0,0-1.91.64,2.12,2.12,0,0,0-.76,1.71,2.15,2.15,0,0,0,.76,1.73,3.18,3.18,0,0,0,3.85,0,2.15,2.15,0,0,0,.76-1.73,2.12,2.12,0,0,0-.76-1.71A2.94,2.94,0,0,0,183.39,8.87Zm6.35-4.25.43,2.1h-.3a2.85,2.85,0,0,0-1.83.51,1.83,1.83,0,0,0-.62,1.49l-1.3-.6a3.75,3.75,0,0,1,.42-1.79,3.16,3.16,0,0,1,1.22-1.24,3.51,3.51,0,0,1,1.78-.45h.2Z"/><path class="cls-2" d="M192.24,19.75V1.62h2.68V9.25a3.91,3.91,0,0,1,1.68-1.71A5.16,5.16,0,0,1,199,7a5.4,5.4,0,0,1,2.38.51A3.93,3.93,0,0,1,203,9.05a4.88,4.88,0,0,1,.63,2.6v8.1H201V12.5a3.5,3.5,0,0,0-.76-2.58,2.68,2.68,0,0,0-1.91-.72,3.55,3.55,0,0,0-1.59.39,3.06,3.06,0,0,0-1.3,1.25,4.49,4.49,0,0,0-.51,2.31v6.6Z"/></svg>