<svg id="Layer_1" data-name="Layer 1" xmlns="http://www.w3.org/2000/svg" viewBox="0 0 113 117.03"><defs><style>.cls-1{fill:#e5e2db;}.cls-2{fill:#231f20;}</style></defs><title>VC_Favicon</title><rect class="cls-1" y="2.01" width="113" height="113" rx="9.47"/><path class="cls-2" d="M19.79,79.59l9.48,9.52,9.51-9.48-9.47-9.51ZM29.28,94.7A2.33,2.33,0,0,1,27.62,94L14.88,81.22a2.28,2.28,0,0,1-.68-1.64A2.32,2.32,0,0,1,14.88,78L27.68,65.2a2.32,2.32,0,0,1,3.28,0L43.7,78a2.31,2.31,0,0,1,0,3.28L30.9,94a2.32,2.32,0,0,1-1.62.68" transform="translate(-7.61 -5.25)"/><path class="cls-2" d="M96.89,33.21a11.22,11.22,0,1,0,11.32,11.12A11.23,11.23,0,0,0,96.89,33.21m.24,27.07a15.86,15.86,0,1,1,15.71-16,15.87,15.87,0,0,1-15.71,16" transform="translate(-7.61 -5.25)"/><path class="cls-2" d="M64.26,122.28a15.88,15.88,0,0,1-16-15.72,2.32,2.32,0,0,1,4.64,0,11.22,11.22,0,0,0,22.43-.19,2.32,2.32,0,0,1,4.64,0,15.89,15.89,0,0,1-15.72,16" transform="translate(-7.61 -5.25)"/><path class="cls-2" d="M59.75,90.75h8.49l.26-32H60Zm10.81,4.63H57.42a2.32,2.32,0,0,1-2.32-2.33l.26-36.62a2.29,2.29,0,0,1,2.31-2.3H70.83a2.28,2.28,0,0,1,1.64.68,2.32,2.32,0,0,1,.68,1.65l-.29,36.62a2.32,2.32,0,0,1-2.3,2.3" transform="translate(-7.61 -5.25)"/><path class="cls-2" d="M22.73,36.91V53.22L36.85,45.1ZM20.42,59.54a2.2,2.2,0,0,1-1.18-.31,2.32,2.32,0,0,1-1.15-2V32.89a2.34,2.34,0,0,1,1.16-2,2.32,2.32,0,0,1,2.32,0L42.64,43.1a2.31,2.31,0,0,1,1.16,2,2.34,2.34,0,0,1-1.17,2L21.56,59.24a2.31,2.31,0,0,1-1.14.3" transform="translate(-7.61 -5.25)"/><path class="cls-2" d="M89.93,90.79l18.18-.05-9-19.57Zm21.8,4.58h0l-25.44.07a2.34,2.34,0,0,1-2-1.08,2.3,2.3,0,0,1-.14-2.23L97.1,64.68a2.32,2.32,0,0,1,4.2,0l12.52,27.39a2.32,2.32,0,0,1-2.09,3.28" transform="translate(-7.61 -5.25)"/><path class="cls-2" d="M70.06,39.45a2.39,2.39,0,0,1-1.18-.31,8.9,8.9,0,0,1-4.19-6.08c-.47-1.69-.75-2.54-2.06-3.3s-2.17-.58-3.86-.15a8.63,8.63,0,0,1-11.53-6.69c-.46-1.68-.73-2.52-2-3.27s-2.17-.57-3.85-.13A8.85,8.85,0,0,1,34,18.91a8.75,8.75,0,0,1-4.18-6.07c-.46-1.68-.73-2.52-2-3.27a2.31,2.31,0,1,1,2.31-4c3,1.73,3.68,4.24,4.18,6.07.45,1.68.73,2.52,2,3.27s2.18.57,3.86.13a8.85,8.85,0,0,1,7.33.61c3,1.73,3.68,4.24,4.18,6.07.46,1.68.73,2.52,2,3.26s2.19.59,3.88.16a8.78,8.78,0,0,1,7.36.63,8.88,8.88,0,0,1,4.18,6.07c.47,1.69.75,2.54,2.06,3.3a2.32,2.32,0,0,1-1.15,4.32" transform="translate(-7.61 -5.25)"/></svg>