<svg width="123" height="124" viewBox="0 0 123 124" fill="none" xmlns="http://www.w3.org/2000/svg">
<path d="M115.95 1H7.05C3.70868 1 1 3.73106 1 7.1V116.9C1 120.269 3.70868 123 7.05 123H115.95C119.291 123 122 120.269 122 116.9V7.1C122 3.73106 119.291 1 115.95 1Z" fill="#F3F3F3" stroke="#A7A7A7"/>
<mask id="mask0_18_265" style="mask-type:alpha" maskUnits="userSpaceOnUse" x="0" y="0" width="123" height="124">
<path d="M115.95 1H7.05C3.70868 1 1 3.73106 1 7.1V116.9C1 120.269 3.70868 123 7.05 123H115.95C119.291 123 122 120.269 122 116.9V7.1C122 3.73106 119.291 1 115.95 1Z" fill="white" stroke="white"/>
</mask>
<g mask="url(#mask0_18_265)">
<path d="M89.051 -6.625H73.9673L74.6157 -6.07785C79.2164 -2.18518 80.9765 3.64601 79.3245 9.5241C77.7651 15.0739 73.5504 19.2636 68.8415 19.9358C68.0541 20.0453 67.2669 20.1078 66.5103 20.1078C63.7314 20.1078 60.9523 19.373 58.2814 17.9191C56.2281 16.8092 54.2211 15.496 52.2757 14.2453C50.7011 13.2292 49.08 12.1661 47.428 11.2125C43.7381 9.07074 39.5078 7.94514 35.1695 7.94514C29.025 7.94514 22.9266 10.1338 18.017 14.1046C12.9068 18.2317 9.57205 23.9848 8.61485 30.285C7.48781 37.7107 9.12432 44.2455 13.4781 49.6858C17.0753 54.1882 22.4172 57.9244 29.7968 61.0981C34.8762 63.2866 43.5374 68.1017 44.3094 75.6994C44.9887 82.3122 40.7738 88.6125 34.305 90.7074C33.0853 91.0982 31.8039 91.3014 30.4916 91.3014C25.6438 91.3014 20.9968 88.675 16.4886 86.1269C15.7784 85.7203 15.0992 85.3452 14.4198 84.97C9.97347 82.5312 5.00217 81.2336 0.03088 81.2336C-7.87379 81.2336 -15.2072 84.4071 -20.1322 89.9569C-24.7948 95.2253 -26.8481 102.041 -26.0607 109.67C-25.9834 110.421 -25.1189 115.408 -23.8992 118.425H-8.3215L-8.78468 117.987C-13.2002 113.751 -16.4423 106.747 -12.243 99.7746C-9.77275 95.6943 -5.46533 93.4432 -0.123507 93.4432C2.39301 93.4432 5.00217 93.959 7.39518 94.944C9.7882 95.9288 11.9805 97.2264 14.0956 98.4926C17.0445 100.244 20.0858 102.057 23.7757 103.073C26.4158 103.808 29.0867 104.183 31.7268 104.183C36.1268 104.183 40.2798 103.183 44.0933 101.197C47.9991 99.1649 51.3186 96.2102 53.974 92.4114C57.5404 87.2993 58.8373 80.7334 57.6022 73.9485C56.2899 66.6635 52.2912 60.2694 46.6252 56.4237C43.522 54.3132 39.4153 51.6399 35.1849 49.7328C31.8656 48.2318 27.126 45.8557 24.2544 42.432C21.3828 39.0239 20.7189 35.1001 22.201 30.4101C23.8993 25.0791 29.4264 21.3584 35.6482 21.3584C36.3275 21.3584 36.9913 21.4053 37.6552 21.4992C41.592 22.0462 44.9732 24.2819 48.5396 26.6581C51.7199 28.7686 55.0084 30.9415 58.791 31.8796C61.0759 32.4425 63.3454 32.7238 65.5531 32.7238C71.3426 32.7238 76.808 30.754 81.3625 27.049C85.3611 23.7815 88.557 19.2323 90.3169 14.2453C92.3703 8.44542 91.8453 2.92688 91.0272 -0.684377C90.3942 -3.54526 89.5141 -5.64011 89.051 -6.625Z" fill="#C7C7C7"/>
<path d="M47.5616 20.825H62.6453L61.9969 21.3721C57.3962 25.2648 55.6361 31.096 57.288 36.9741C58.8474 42.5239 63.0621 46.7135 67.771 47.3857C68.5584 47.4952 69.3457 47.5577 70.1022 47.5577C72.8811 47.5577 75.6602 46.823 78.3311 45.3691C80.3845 44.2592 82.3914 42.946 84.3368 41.6953C85.9115 40.6791 87.5326 39.616 89.1845 38.6624C92.8744 36.5207 97.1047 35.3951 101.443 35.3951C107.588 35.3951 113.686 37.5838 118.596 41.5546C123.706 45.6817 127.04 51.4348 127.998 57.735C129.125 65.1607 127.488 71.6954 123.134 77.1357C119.537 81.6381 114.195 85.3744 106.816 88.5481C101.736 90.7366 93.0751 95.5516 92.3031 103.149C91.6239 109.762 95.8388 116.062 102.308 118.157C103.527 118.548 104.809 118.751 106.121 118.751C110.969 118.751 115.616 116.125 120.124 113.577C120.834 113.17 121.513 112.795 122.193 112.42C126.639 109.981 131.61 108.684 136.582 108.684C144.486 108.684 151.82 111.857 156.745 117.407C161.407 122.675 163.461 129.491 162.673 137.12C162.596 137.871 161.732 142.858 160.511 145.875H144.934L145.397 145.437C149.813 141.201 153.055 134.197 148.856 127.225C146.385 123.144 142.078 120.893 136.736 120.893C134.22 120.893 131.61 121.409 129.217 122.394C126.824 123.379 124.632 124.676 122.517 125.943C119.568 127.694 116.527 129.507 112.837 130.523C110.197 131.258 107.526 131.633 104.886 131.633C100.486 131.633 96.3327 130.633 92.5193 128.647C88.6134 126.615 85.2939 123.66 82.6386 119.861C79.0721 114.749 77.7753 108.183 79.0104 101.398C80.3226 94.1134 84.3214 87.7194 89.9874 83.8736C93.0905 81.7632 97.1973 79.0899 101.428 77.1827C104.747 75.6818 109.487 73.3057 112.358 69.8819C115.23 66.4738 115.894 62.55 114.412 57.86C112.713 52.5291 107.186 48.8084 100.964 48.8084C100.285 48.8084 99.6212 48.8552 98.9574 48.9492C95.0205 49.4962 91.6393 51.7318 88.073 54.1081C84.8927 56.2185 81.6042 58.3915 77.8216 59.3295C75.5366 59.8924 73.2671 60.1738 71.0595 60.1738C65.2699 60.1738 59.8045 58.2039 55.2501 54.4989C51.2515 51.2315 48.0556 46.6822 46.2956 41.6953C44.2423 35.8953 44.7672 30.3768 45.5853 26.7656C46.2183 23.9047 47.0985 21.8098 47.5616 20.825Z" fill="#C7C7C7"/>
</g>
<path fill-rule="evenodd" clip-rule="evenodd" d="M71.2685 65.111C73.9717 65.1352 76.5546 66.2416 78.4484 68.1864C80.3422 70.1314 81.3918 72.7555 81.366 75.481C81.366 81.1997 73.1622 92.9727 71.2685 92.9727C69.3749 92.9727 61.1726 81.1997 61.1726 75.481C61.1464 72.7556 62.1956 70.1316 64.0893 68.1866C65.9828 66.2416 68.5655 65.1352 71.2685 65.111ZM71.2685 70.9365C73.0959 70.9018 74.7626 71.9847 75.4864 73.6767C76.2102 75.3689 75.8475 77.3343 74.5684 78.6505C73.2891 79.9666 71.3476 80.3724 69.655 79.6771C67.9625 78.9819 66.8549 77.3238 66.852 75.481C66.8303 72.9978 68.8057 70.965 71.2685 70.9365Z" fill="#A7A7A7"/>
<path fill-rule="evenodd" clip-rule="evenodd" d="M25.6542 46.9026C28.3573 46.9267 30.9402 48.0331 32.834 49.9781C34.7278 51.9231 35.7775 54.5472 35.7516 57.2727C35.7516 62.9914 27.5478 74.7492 25.6542 74.7492C23.7605 74.7492 15.5583 62.9914 15.5583 57.2727C15.5321 54.5473 16.5813 51.9233 18.475 49.9781C20.3685 48.0331 22.9512 46.9267 25.6542 46.9026ZM25.6542 52.7282C27.4816 52.6935 29.1482 53.7763 29.8721 55.4684C30.5958 57.1604 30.2331 59.1258 28.954 60.4421C27.6747 61.7583 25.7333 62.1639 24.0407 61.4687C22.3482 60.7736 21.2406 59.1155 21.2377 57.2727C21.2248 56.0792 21.6831 54.9296 22.5115 54.0772C23.3399 53.2247 24.4705 52.7394 25.6542 52.7282Z" fill="#A7A7A7"/>
</svg>
