<svg width="27" height="25" viewBox="0 0 27 25" fill="none" xmlns="http://www.w3.org/2000/svg">
<path fill-rule="evenodd" clip-rule="evenodd" d="M3.5 2C3.10936 2 2.73015 2.15843 2.44707 2.4478C2.16325 2.73792 2 3.13599 2 3.55556V21.4444C2 21.864 2.16325 22.2621 2.44707 22.5522C2.73015 22.8416 3.10936 23 3.5 23H23.5C23.8906 23 24.2698 22.8416 24.5529 22.5522C24.8367 22.2621 25 21.864 25 21.4444V7.38889C25 6.96932 24.8367 6.57125 24.5529 6.28113C24.2698 5.99176 23.8906 5.83333 23.5 5.83333H12.25C11.9121 5.83333 11.597 5.66266 11.4124 5.3796L9.2083 2H3.5ZM1.0174 1.04921C1.672 0.380065 2.56456 0 3.5 0H9.75C10.0879 0 10.403 0.170675 10.5876 0.453732L12.7917 3.83333H23.5C24.4354 3.83333 25.328 4.2134 25.9826 4.88254C26.6365 5.55094 27 6.4529 27 7.38889V21.4444C27 22.3804 26.6365 23.2824 25.9826 23.9508C25.328 24.6199 24.4354 25 23.5 25H3.5C2.56456 25 1.672 24.6199 1.0174 23.9508C0.363529 23.2824 0 22.3804 0 21.4444V3.55556C0 2.61957 0.363529 1.71761 1.0174 1.04921Z" fill="black"/>
</svg>
