<svg width="22" height="26" viewBox="0 0 22 26" fill="none" xmlns="http://www.w3.org/2000/svg">
<path d="M21 10.8182C21 18.4545 11 25 11 25C11 25 1 18.4545 1 10.8182C1 8.21424 2.05357 5.71695 3.92893 3.87568C5.8043 2.03441 8.34784 1 11 1C13.6522 1 16.1957 2.03441 18.0711 3.87568C19.9464 5.71695 21 8.21424 21 10.8182Z" stroke="black" stroke-width="2" stroke-linecap="round" stroke-linejoin="round"/>
<path d="M11 14.0909C12.8409 14.0909 14.3333 12.6257 14.3333 10.8182C14.3333 9.0107 12.8409 7.54545 11 7.54545C9.15905 7.54545 7.66667 9.0107 7.66667 10.8182C7.66667 12.6257 9.15905 14.0909 11 14.0909Z" stroke="black" stroke-width="2" stroke-linecap="round" stroke-linejoin="round"/>
</svg>
