<svg width="80" height="80" viewBox="0 0 80 80" fill="none" xmlns="http://www.w3.org/2000/svg">
<path d="M51.8182 31.7273C51.8182 30.4273 50.7545 29.3636 49.4545 29.3636H30.5455C29.2455 29.3636 28.1818 30.4273 28.1818 31.7273M51.8182 31.7273V45.9091C51.8182 47.2091 50.7545 48.2727 49.4545 48.2727H30.5455C29.2455 48.2727 28.1818 47.2091 28.1818 45.9091V31.7273M51.8182 31.7273L40 40L28.1818 31.7273M40 1V16.6M40 63.4V79M12.427 12.427L23.464 23.464M56.536 56.536L67.573 67.573M1 40H16.6M63.4 40H79M12.427 67.573L23.464 56.536M56.536 23.464L67.573 12.427" stroke="black" stroke-width="2" stroke-linecap="round" stroke-linejoin="round"/>
</svg>
