<?xml version="1.0" encoding="UTF-8"?>
<svg id="a" xmlns="http://www.w3.org/2000/svg" viewBox="0 0 198.43 85.04">

  <defs><style>.b{fill:#fff;}</style></defs>
  <rect class="b" x="42.7" y="21.91" width="113.02" height="41.22"/>

<g>

<path d="M53.48,39.75h-1.83c.11-.25,.22-.53,.34-.84,.11-.31,.27-.76,.46-1.34l2.27-6.77h2.18l2.27,6.77c.19,.57,.35,1.02,.46,1.33s.23,.6,.33,.84h-1.8l-.68-2.18h-3.33l-.67,2.18Zm3.59-3.49l-1.26-4.03-1.25,4.03h2.51Z"/>

<path d="M112.38,30.8h4.69v1.26h-1.47v6.44h1.47v1.26h-4.69v-1.26h1.47v-6.44h-1.47v-1.26Z"/>

<path d="M146.77,39.75c-.02-.18-.05-.5-.08-.95s-.06-.99-.09-1.63-.06-1.32-.09-2.05-.06-1.47-.09-2.21c-.03-.74-.05-1.45-.07-2.11h-2.15l-2.1,7.26-2.1-7.26h-2.18c-.02,.56-.04,1.08-.06,1.56s-.04,1-.06,1.58c-.02,.58-.05,1.17-.07,1.78-.03,.61-.05,1.18-.08,1.73-.03,.55-.06,1.02-.08,1.43s-.05,.7-.07,.87h1.66l.17-6.93,1.98,6.93h1.81l1.97-6.94,.14,6.94h1.66Z"/>

<path d="M53.78,52.77h1.32c.58,0,1.09,0,1.54-.02s.79-.04,1.03-.08v1.5h-5.73c.04-.25,.07-.6,.08-1.06,0-.46,.01-1,.01-1.6v-3.62c0-.6,0-1.14-.01-1.6,0-.46-.03-.82-.08-1.06h1.84v7.54Z"/>

<path d="M60.41,54.18h-1.83c.11-.25,.22-.53,.34-.84,.11-.31,.27-.76,.46-1.34l2.27-6.77h2.18l2.27,6.77c.19,.57,.35,1.02,.46,1.33s.23,.6,.33,.84h-1.8l-.68-2.18h-3.33l-.67,2.18Zm3.59-3.49l-1.26-4.03-1.25,4.03h2.51Z"/>

<path d="M68.44,51.39v-3.34c0-.6,0-1.16-.01-1.68,0-.52-.03-.9-.08-1.14,.3-.02,.7-.04,1.21-.05s1.05-.02,1.64-.02c.66,0,1.24,.07,1.76,.21,.51,.14,.92,.37,1.21,.69,.29,.32,.44,.76,.44,1.31,0,.5-.14,.9-.42,1.21-.28,.31-.62,.54-1.02,.69,.31,.08,.6,.21,.89,.37,.29,.17,.53,.4,.72,.7s.29,.7,.29,1.2-.13,.96-.4,1.37c-.27,.41-.68,.73-1.23,.97-.56,.24-1.27,.36-2.13,.36-.47,0-.91,0-1.32-.01s-.76-.02-1.05-.03c-.29-.01-.48-.02-.58-.02,.04-.25,.07-.62,.08-1.12,0-.5,.01-1.06,.01-1.66Zm1.75-4.86v2.29h.95c.58,0,1.02-.11,1.33-.33s.46-.52,.46-.91c0-.36-.13-.63-.39-.81s-.67-.27-1.24-.27c-.21,0-.42,0-.63,0-.21,0-.37,.01-.48,.02Zm0,3.62v2.68c.1,0,.26,.01,.47,.02s.47,.01,.77,.01c.36,0,.68-.04,.98-.13,.3-.09,.54-.23,.71-.44s.27-.5,.27-.87c0-.42-.17-.74-.52-.95s-.85-.32-1.49-.32h-1.18Z"/>

<rect x="62.05" y="34.62" width="48.04" height="1.33"/>

<rect x="119.35" y="34.62" width="15.33" height="1.33"/>

</g>

</svg>
